STARTFONT 2.1
COMMENT This font was automatically resized by bdfresize-1.4
COMMENT   mag_x = 3/4, mag_y = 3/4, blackness = 4
FONT -tomabechi-proportional-medium-r-normal--24-240-75-75-P-152-MuleTibetan-2
SIZE 24 75 75
FONTBOUNDINGBOX 36 39 -4 -15
STARTPROPERTIES 26
FOUNDRY "tomabechi"
FAMILY_NAME "provided"
WEIGHT_NAME "medium"
SLANT "r"
SETWIDTH_NAME "normal"
ADD_STYLE_NAME ""
PIXEL_SIZE 24
POINT_SIZE 240
RESOLUTION_X 75
RESOLUTION_Y 75
SPACING "P"
AVERAGE_WIDTH 152
CHARSET_REGISTRY "MuleTibetan"
CHARSET_ENCODING "2"
STRIKEOUT_ASCENT 20
STRIKEOUT_DESCENT 10
X_HEIGHT 22
FACE_NAME "Mule Tibetan (32 point)"
COPYRIGHT "Public Domain, original design by Toru Tomabechi 1999"
_XMBDFED_INFO "Edited with xmbdfed 4.2."
WEIGHT 10
RESOLUTION 75
QUAD_WIDTH 24
DEFAULT_CHAR 8481
FONT_ASCENT 23
FONT_DESCENT 9
ENDPROPERTIES
CHARS 352
STARTCHAR char8481
ENCODING 8481
SWIDTH 8250 0
DWIDTH 17 0
BBX 15 14 1 2
BITMAP
FFFE
8002
8002
8002
8002
8002
8002
8002
8002
8002
8002
8002
8002
FFFE
ENDCHAR
STARTCHAR char9040
ENCODING 8482
SWIDTH 7500 0
DWIDTH 15 0
BBX 12 5 2 12
BITMAP
FFF0
FFF0
0E00
0600
0600
ENDCHAR
STARTCHAR char9041
ENCODING 8483
SWIDTH 9000 0
DWIDTH 18 0
BBX 15 11 3 3
BITMAP
3FF8
3FF8
67F0
7E1C
0F1C
0338
6070
FFC0
781E
1FF8
03E0
ENDCHAR
STARTCHAR char9042
ENCODING 8484
SWIDTH 9000 0
DWIDTH 18 0
BBX 11 7 8 7
BITMAP
7C00
07E0
00E0
E000
1F00
0380
0060
ENDCHAR
STARTCHAR char9043
ENCODING 8485
SWIDTH 9000 0
DWIDTH 18 0
BBX 18 10 0 4
BITMAP
007E00
00CF80
C183C0
F1F1C0
7E71C0
1F8700
03F800
F001C0
3E1F00
03F000
ENDCHAR
STARTCHAR char8496
ENCODING 8496
SWIDTH 8250 0
DWIDTH 17 0
BBX 17 22 -1 2
BITMAP
038000
04CF80
039F00
003C00
FC7000
7EC000
070000
33E300
73F700
61E700
23E300
26E300
277300
27B300
21DB00
20DB00
318900
3F8D00
1F0500
0E0300
000100
000100
ENDCHAR
STARTCHAR char8497
ENCODING 8497
SWIDTH 7500 0
DWIDTH 15 0
BBX 14 15 1 2
BITMAP
EFC0
C7C0
C780
4DC0
4DC0
4EC0
4FC0
4360
4120
4730
7E18
7C18
1C08
0004
0004
ENDCHAR
STARTCHAR char8498
ENCODING 8498
SWIDTH 7500 0
DWIDTH 15 0
BBX 14 29 1 -6
BITMAP
0400
0400
0400
0200
0300
0900
0FC0
1F80
3E18
0024
1E3C
3F18
7F00
C700
8300
8118
8124
C13C
CF18
5F00
0F80
20C0
1000
0870
04F8
0408
0380
03F8
01F8
ENDCHAR
STARTCHAR char8498
ENCODING 8499
SWIDTH 7500 0
DWIDTH 15 0
BBX 14 29 1 -6
BITMAP
0400
0400
0400
0200
0300
0900
0FC0
1F80
3E18
0024
1E3C
3F18
7F00
C73C
8300
8118
8124
C13C
CF18
5F00
0F80
20C0
1000
0870
04F8
0408
0380
03F8
01F8
ENDCHAR
STARTCHAR char8500
ENCODING 8500
SWIDTH 12000 0
DWIDTH 24 0
BBX 24 15 1 2
BITMAP
0000F0
0007FC
F007FE
0C070E
030E07
018607
00E707
003807
001FFE
002FFC
0033FA
001C0E
000FFE
000FFC
0001E0
ENDCHAR
STARTCHAR char8501
ENCODING 8501
SWIDTH 6750 0
DWIDTH 14 0
BBX 14 15 0 2
BITMAP
03C0
1FF0
1FF8
3C38
3818
381C
981C
C018
7FF8
BFF0
CFE8
6038
7FF8
3FF0
0780
ENDCHAR
STARTCHAR char8502
ENCODING 8502
SWIDTH 11625 0
DWIDTH 24 0
BBX 22 24 1 -8
BITMAP
0003C0
001FF0
E01FF8
181C38
0E181C
07181C
018C1C
00F018
007FF8
009FF0
0047E8
007838
003FF0
001FE0
0007A0
0007E0
0003C0
000380
000380
000100
000100
000100
000100
000100
ENDCHAR
STARTCHAR char8503
ENCODING 8503
SWIDTH 15375 0
DWIDTH 31 0
BBX 30 13 1 3
BITMAP
0007870C
001FE76C
E03FF7FC
18383FFC
0E303F6C
03303F0C
01983F0C
00F07F0C
007FFF6C
001FF7FC
0007C7FC
0000076C
0000070C
ENDCHAR
STARTCHAR char8504
ENCODING 8504
SWIDTH 4125 0
DWIDTH 9 0
BBX 7 27 1 -8
BITMAP
02
26
66
FE
BE
66
FC
66
FC
98
7C
38
38
10
10
10
10
10
10
10
10
10
10
10
10
10
10
ENDCHAR
STARTCHAR char8505
ENCODING 8505
SWIDTH 6000 0
DWIDTH 12 0
BBX 11 21 1 -5
BITMAP
0F00
3FC0
7FC0
60E0
C0E0
80E0
00C0
3D80
7F00
0700
0380
3D80
7EC0
0FC0
0340
01E0
01A0
00C0
00C0
0060
0020
ENDCHAR
STARTCHAR char8506
ENCODING 8506
SWIDTH 8625 0
DWIDTH 18 0
BBX 16 24 1 -8
BITMAP
01E0
47F8
4FF8
4C1C
581C
5018
C010
8720
8FC0
81C0
8060
87F0
8FF0
81F8
8068
803C
8034
8010
4018
400C
4004
6001
3803
1FFF
ENDCHAR
STARTCHAR char58
ENCODING 8507
SWIDTH 2625 0
DWIDTH 6 0
BBX 4 3 1 14
BITMAP
F0
F0
60
ENDCHAR
STARTCHAR char58
ENCODING 8508
SWIDTH 2625 0
DWIDTH 6 0
BBX 4 3 1 14
BITMAP
F0
F0
60
ENDCHAR
STARTCHAR char59
ENCODING 8509
SWIDTH 1875 0
DWIDTH 4 0
BBX 3 27 1 -11
BITMAP
E0
C0
C0
C0
C0
C0
C0
C0
C0
80
80
80
80
80
80
80
80
80
80
80
80
80
80
80
80
80
80
ENDCHAR
STARTCHAR char60
ENCODING 8510
SWIDTH 4875 0
DWIDTH 10 0
BBX 9 27 1 -11
BITMAP
E380
C300
C300
C300
C300
C300
C300
C300
C300
C300
8300
8300
8300
8300
8300
8300
8300
8300
8300
8300
8300
8300
8300
8300
8300
8300
8300
ENDCHAR
STARTCHAR char61
ENCODING 8511
SWIDTH 2625 0
DWIDTH 6 0
BBX 4 27 1 -11
BITMAP
F0
60
00
60
60
60
60
60
60
60
60
60
60
60
60
60
60
60
60
60
60
60
60
60
60
60
60
ENDCHAR
STARTCHAR char62
ENCODING 8512
SWIDTH 3000 0
DWIDTH 6 0
BBX 5 28 1 -11
BITMAP
38
F8
C0
70
20
00
70
70
70
70
70
70
70
60
60
60
60
60
60
60
60
60
60
60
60
60
60
60
ENDCHAR
STARTCHAR char63
ENCODING 8513
SWIDTH 3000 0
DWIDTH 6 0
BBX 5 27 1 -11
BITMAP
D8
50
70
70
00
70
70
70
70
70
70
70
70
70
60
60
60
60
60
60
60
60
60
60
60
60
60
ENDCHAR
STARTCHAR char8514
ENCODING 8514
SWIDTH 10875 0
DWIDTH 22 0
BBX 21 28 1 -11
BITMAP
002000
002000
003000
001800
005800
00D800
017C00
00F800
007000
FBB7F8
39B6F0
01FA40
00F800
003000
003800
003800
003800
003800
003800
003800
003800
003800
001000
001000
001000
001000
001000
001000
ENDCHAR
STARTCHAR char8515
ENCODING 8515
SWIDTH 9750 0
DWIDTH 20 0
BBX 18 19 1 -2
BITMAP
00E000
00E000
000000
07F800
0FFC00
1C0E00
380700
B00340
F003C0
F003C0
300300
380700
1C0E00
0C0C00
07F800
03F000
000000
00E000
00E000
ENDCHAR
STARTCHAR char64
ENCODING 8516
SWIDTH 3375 0
DWIDTH 7 0
BBX 6 15 1 2
BITMAP
78
FC
CC
FC
78
30
FC
FC
FC
30
78
FC
CC
FC
78
ENDCHAR
STARTCHAR char8517
ENCODING 8517
SWIDTH 8250 0
DWIDTH 17 0
BBX 15 19 1 -2
BITMAP
FFFE
FFFE
FEFE
FEFE
C006
DEF6
DEF6
C006
FFFE
FFFE
F0C6
FEE6
07F6
01BE
00EE
0036
001E
000E
0002
ENDCHAR
STARTCHAR char8518
ENCODING 8518
SWIDTH 7125 0
DWIDTH 15 0
BBX 13 21 1 -4
BITMAP
FE00
FE00
FE00
FE00
FFF8
FFF8
C018
C018
FF78
FF78
FF60
FF60
FFE0
FFE0
0000
FFF8
FFF8
FFF8
FFF8
FFF8
FFF8
ENDCHAR
STARTCHAR char8519
ENCODING 8519
SWIDTH 9375 0
DWIDTH 19 0
BBX 18 12 1 2
BITMAP
003440
01EC80
035980
0E7F80
0BF900
6BC100
6F6300
7B6600
737E00
7FF800
7FC000
E00000
ENDCHAR
STARTCHAR char8520
ENCODING 8520
SWIDTH 4875 0
DWIDTH 10 0
BBX 14 13 -4 -5
BITMAP
0004
078C
07CC
0678
0738
3FE0
6E40
76C0
3F80
0E00
0C00
3800
F000
ENDCHAR
STARTCHAR char8521
ENCODING 8521
SWIDTH 7125 0
DWIDTH 15 0
BBX 4 9 5 -5
BITMAP
F0
F0
60
60
60
60
60
60
60
ENDCHAR
STARTCHAR char8522
ENCODING 8522
SWIDTH 3750 0
DWIDTH 8 0
BBX 6 6 1 5
BITMAP
78
FC
CC
CC
FC
78
ENDCHAR
STARTCHAR char8523
ENCODING 8523
SWIDTH 8250 0
DWIDTH 17 0
BBX 15 6 1 5
BITMAP
783C
FC7E
CC66
CC66
FC7E
783C
ENDCHAR
STARTCHAR char8524
ENCODING 8524
SWIDTH 8250 0
DWIDTH 17 0
BBX 15 14 1 2
BITMAP
0380
07C0
0C60
0C60
0FE0
07C0
0000
0000
783C
FC7E
CC66
CC66
FC7E
783C
ENDCHAR
STARTCHAR char8526
ENCODING 8525
SWIDTH 4500 0
DWIDTH 9 0
BBX 8 8 1 5
BITMAP
C3
66
3C
18
1C
36
63
C1
ENDCHAR
STARTCHAR char8526
ENCODING 8526
SWIDTH 9000 0
DWIDTH 18 0
BBX 17 8 1 5
BITMAP
C36180
663300
3C1E00
180C00
1C0E00
361B00
633180
C16080
ENDCHAR
STARTCHAR char8527
ENCODING 8527
SWIDTH 8625 0
DWIDTH 18 0
BBX 16 8 1 5
BITMAP
00C3
7866
FC3C
CC18
CC1C
FC36
7863
00C1
ENDCHAR
STARTCHAR char48
ENCODING 8528
SWIDTH 5625 0
DWIDTH 12 0
BBX 10 12 1 5
BITMAP
0E00
3F80
7F80
61C0
40C0
C0C0
C0C0
E0C0
6080
7F80
3F00
1E00
ENDCHAR
STARTCHAR char49
ENCODING 8529
SWIDTH 5625 0
DWIDTH 12 0
BBX 10 15 1 2
BITMAP
3E00
7F00
7380
E180
E1C0
E1C0
61C0
21C0
0180
0380
0300
0600
0400
0800
1000
ENDCHAR
STARTCHAR char50
ENCODING 8530
SWIDTH 5625 0
DWIDTH 12 0
BBX 10 15 1 3
BITMAP
1E00
3F00
7F80
6180
4180
C180
8180
0180
1F00
3E00
3F00
0300
0180
0080
0040
ENDCHAR
STARTCHAR char51
ENCODING 8531
SWIDTH 6000 0
DWIDTH 12 0
BBX 11 16 1 2
BITMAP
0F00
3F80
7FC0
C0C0
81C0
0F80
01C0
00C0
00C0
3FC0
7F00
7F00
0180
00C0
0040
0020
ENDCHAR
STARTCHAR char52
ENCODING 8532
SWIDTH 6375 0
DWIDTH 13 0
BBX 12 9 1 8
BITMAP
0800
3C00
7E00
E7C0
E3C0
7000
3800
1F80
0FF0
ENDCHAR
STARTCHAR char53
ENCODING 8533
SWIDTH 5625 0
DWIDTH 12 0
BBX 10 12 1 5
BITMAP
C000
C180
C180
C180
C180
C180
C180
E180
7380
7F80
3C80
0040
ENDCHAR
STARTCHAR char54
ENCODING 8534
SWIDTH 6750 0
DWIDTH 14 0
BBX 12 9 1 7
BITMAP
8000
C000
C000
C380
67E0
6360
3F30
1F90
0F00
ENDCHAR
STARTCHAR char55
ENCODING 8535
SWIDTH 6750 0
DWIDTH 14 0
BBX 12 11 1 6
BITMAP
0030
0030
0030
0030
0830
3C30
7C30
4C30
C4F0
8DE0
0F80
ENDCHAR
STARTCHAR char56
ENCODING 8536
SWIDTH 6000 0
DWIDTH 12 0
BBX 11 12 1 5
BITMAP
0800
1800
3000
3000
6000
6000
FC00
FE00
0700
0180
00C0
0020
ENDCHAR
STARTCHAR char57
ENCODING 8537
SWIDTH 5625 0
DWIDTH 12 0
BBX 10 12 1 5
BITMAP
0F00
3F80
7F80
E180
E700
E640
6780
6000
3000
1800
0E00
0780
ENDCHAR
STARTCHAR char49
ENCODING 8538
SWIDTH 9000 0
DWIDTH 18 0
BBX 17 15 1 2
BITMAP
0FC000
1FE000
1C6000
39F000
3FFE00
3C3F00
C83B80
003380
007100
006000
00C000
00C000
018000
030000
060000
ENDCHAR
STARTCHAR char50
ENCODING 8539
SWIDTH 9000 0
DWIDTH 18 0
BBX 17 15 1 3
BITMAP
01C000
07F000
07F000
0E3800
0DF800
1FFE00
3E1F00
E03080
03E380
07C100
07E000
006000
003000
001800
000800
ENDCHAR
STARTCHAR char51
ENCODING 8540
SWIDTH 9000 0
DWIDTH 18 0
BBX 17 16 1 2
BITMAP
03C000
07E000
0FF000
103800
207000
03F000
0E7F00
F83980
C03B80
0FF380
1FC000
1FC000
006000
003000
001000
000800
ENDCHAR
STARTCHAR char52
ENCODING 8541
SWIDTH 9000 0
DWIDTH 18 0
BBX 17 9 1 8
BITMAP
020000
070000
1F8800
3FFE00
3EFF00
FC0180
0E0380
07E100
01FC00
ENDCHAR
STARTCHAR char53
ENCODING 8542
SWIDTH 9000 0
DWIDTH 18 0
BBX 17 12 1 5
BITMAP
180000
183000
183000
183000
1BF800
3E3F00
F83180
1C3380
0E7300
0FD000
079800
000800
ENDCHAR
STARTCHAR char54
ENCODING 8543
SWIDTH 9000 0
DWIDTH 18 0
BBX 17 9 1 7
BITMAP
400000
400000
600000
61F000
3FFE00
3FBF00
DF9B80
0FCB80
078100
ENDCHAR
STARTCHAR char55
ENCODING 8544
SWIDTH 9375 0
DWIDTH 19 0
BBX 18 11 1 6
BITMAP
000C00
000C00
000C00
000C00
020C00
0F0C00
1FFC00
3F1F80
FD3CC0
C379C0
03E1C0
ENDCHAR
STARTCHAR char56
ENCODING 8545
SWIDTH 9000 0
DWIDTH 18 0
BBX 17 12 1 5
BITMAP
010000
030000
060000
060000
0E0000
0FFE00
7F8F00
DFC080
00E380
003100
001800
000400
ENDCHAR
STARTCHAR char57
ENCODING 8546
SWIDTH 9000 0
DWIDTH 18 0
BBX 17 12 1 5
BITMAP
01E000
07F000
0FF800
1FF800
1FFE00
3CCF00
CCFB80
0C0380
060100
030000
01C000
00F000
ENDCHAR
STARTCHAR char48
ENCODING 8547
SWIDTH 9375 0
DWIDTH 19 0
BBX 18 12 1 6
BITMAP
00E000
03F800
07FC00
061C00
0FEE00
3E1FC0
FC0CC0
0C0C00
0E0C00
07F800
03F000
01E000
ENDCHAR
STARTCHAR char8548
ENCODING 8548
SWIDTH 4500 0
DWIDTH 9 0
BBX 6 15 2 2
BITMAP
F8
78
30
00
00
E0
F8
F8
0C
04
00
E0
F8
FC
04
ENDCHAR
STARTCHAR char115
ENCODING 8549
SWIDTH 7500 0
DWIDTH 15 0
BBX 9 8 4 -11
BITMAP
3800
7C00
4600
6600
7C80
FB00
FE00
3800
ENDCHAR
STARTCHAR char8550
ENCODING 8550
SWIDTH 7875 0
DWIDTH 16 0
BBX 15 15 1 2
BITMAP
0100
0380
0380
0100
0000
0000
C006
E00E
E00E
4004
0000
0100
0380
0380
0100
ENDCHAR
STARTCHAR char115
ENCODING 8551
SWIDTH 7125 0
DWIDTH 15 0
BBX 6 6 5 -11
BITMAP
78
FC
CC
CC
FC
78
ENDCHAR
STARTCHAR char8552
ENCODING 8552
SWIDTH 7125 0
DWIDTH 15 0
BBX 13 9 1 8
BITMAP
0018
0018
1C18
7F18
6318
E318
C638
0CF0
1FE0
ENDCHAR
STARTCHAR char8553
ENCODING 8553
SWIDTH 9000 0
DWIDTH 18 0
BBX 6 4 13 12
BITMAP
1C
7C
60
C0
ENDCHAR
STARTCHAR char8554
ENCODING 8554
SWIDTH 12000 0
DWIDTH 24 0
BBX 23 9 1 8
BITMAP
E0000E
F81C0E
0E3E6E
0303E4
0183E0
00C6E4
00780E
00000E
00000E
ENDCHAR
STARTCHAR char8554
ENCODING 8555
SWIDTH 12000 0
DWIDTH 24 0
BBX 23 9 1 8
BITMAP
E0000E
E0703E
ECF8E0
4F8180
0F8300
4EC600
E03C00
E00000
E00000
ENDCHAR
STARTCHAR char8556
ENCODING 8556
SWIDTH 9375 0
DWIDTH 19 0
BBX 18 34 0 -10
BITMAP
000040
0000C0
000780
000600
07FC00
0FF800
180000
380000
380000
380000
380000
380000
380000
380000
380000
380000
380000
380000
380000
380000
380000
380000
380000
380000
380000
380000
380000
380000
380000
380000
380000
380000
700000
800000
ENDCHAR
STARTCHAR char8556
ENCODING 8557
SWIDTH 9375 0
DWIDTH 19 0
BBX 18 34 0 -10
BITMAP
800000
C00000
780000
180000
0FF800
07FC00
000600
000700
000700
000700
000700
000700
000700
000700
000700
000700
000700
000700
000700
000700
000700
000700
000700
000700
000700
000700
000700
000700
000700
000700
000700
000700
000380
000040
ENDCHAR
STARTCHAR char8558
ENCODING 8558
SWIDTH 4125 0
DWIDTH 9 0
BBX 9 14 0 -5
BITMAP
0780
1F00
3800
7000
6000
E000
C000
C000
C000
C000
C000
C000
C000
C000
ENDCHAR
STARTCHAR char8559
ENCODING 8559
SWIDTH 4125 0
DWIDTH 9 0
BBX 9 14 0 -5
BITMAP
F000
7C00
0E00
0700
0300
0380
0180
0180
0180
0180
0180
0180
0180
0180
ENDCHAR
STARTCHAR char65
ENCODING 8737
SWIDTH 7125 0
DWIDTH 15 0
BBX 13 20 1 -3
BITMAP
7FF8
7FF8
0F38
0F38
0918
1998
F198
F098
8088
0088
0048
0048
0008
0008
0008
0008
0008
0008
0008
0008
ENDCHAR
STARTCHAR char66
ENCODING 8738
SWIDTH 7125 0
DWIDTH 15 0
BBX 13 20 1 -3
BITMAP
3FF8
FFF0
C7F8
C638
C618
CC18
CC08
CC08
CD08
CFC8
CFE8
C0F8
C018
8000
8000
8000
8000
8000
8000
8000
ENDCHAR
STARTCHAR char67
ENCODING 8739
SWIDTH 6750 0
DWIDTH 14 0
BBX 12 20 1 -3
BITMAP
FFF0
FFF0
7BB0
63B0
C1B0
81B0
81B0
FDB0
FEB0
CF90
0190
0190
0090
0010
0010
0010
0010
0010
0010
0010
ENDCHAR
STARTCHAR char68
ENCODING 8740
SWIDTH 7125 0
DWIDTH 15 0
BBX 13 25 1 -8
BITMAP
FFF0
FFF0
7FB0
E1B0
C1B0
F9B0
FE90
FF90
0390
0090
3FF0
3FE0
3FE0
1800
3060
21F8
7FF8
3E38
0F38
0730
0330
01A0
0060
00C0
0180
ENDCHAR
STARTCHAR char69
ENCODING 8741
SWIDTH 6750 0
DWIDTH 14 0
BBX 12 15 1 2
BITMAP
FFE0
FFE0
F000
E000
C000
C000
C000
8000
FF00
FF80
FFC0
00E0
0060
0030
0010
ENDCHAR
STARTCHAR char70
ENCODING 8742
SWIDTH 6750 0
DWIDTH 14 0
BBX 12 15 1 2
BITMAP
7FC0
7FC0
1E00
0400
0400
0700
0FC0
11F0
E0F0
E070
7030
3030
3820
1E40
1F80
ENDCHAR
STARTCHAR char71
ENCODING 8743
SWIDTH 7125 0
DWIDTH 15 0
BBX 13 15 1 2
BITMAP
7FF0
7FF0
0E00
0200
0F80
3FE0
7FF0
7FF8
C218
C208
8208
8208
8208
4710
3CE0
ENDCHAR
STARTCHAR char72
ENCODING 8744
SWIDTH 7125 0
DWIDTH 15 0
BBX 13 16 1 1
BITMAP
7FF0
7FF0
7000
6000
6000
4FE0
7FE0
7FE0
4000
C000
DF80
FFC0
FFE0
0030
0010
0008
ENDCHAR
STARTCHAR char8745
ENCODING 8745
SWIDTH 9000 0
DWIDTH 18 0
BBX 15 14 2 0
BITMAP
FFFE
FFFE
FFFE
FFFE
FFFE
FFFE
FFFE
FFFE
FFFE
FFFE
FFFE
FFFE
FFFE
FFFE
ENDCHAR
STARTCHAR char74
ENCODING 8746
SWIDTH 7500 0
DWIDTH 15 0
BBX 14 21 1 -5
BITMAP
1FC0
3FC0
63E0
C0C0
C040
E1F0
73F8
7478
2C3C
0C1C
0F1C
0FDC
0798
0018
0018
0030
0060
0060
00C0
0080
0100
ENDCHAR
STARTCHAR char75
ENCODING 8747
SWIDTH 6375 0
DWIDTH 13 0
BBX 12 23 1 -6
BITMAP
7FF0
3FF0
0070
0070
0070
0C60
7F60
7FE0
F040
E040
E040
6000
6000
6000
3000
1000
0800
0800
0400
0600
0600
0300
0100
ENDCHAR
STARTCHAR char76
ENCODING 8748
SWIDTH 6000 0
DWIDTH 12 0
BBX 11 16 1 1
BITMAP
FF00
FF80
C040
C060
E060
FFE0
8FC0
8380
8040
8060
83A0
8FE0
BFE0
F800
E000
8000
ENDCHAR
STARTCHAR char77
ENCODING 8749
SWIDTH 6750 0
DWIDTH 14 0
BBX 12 23 1 -6
BITMAP
3FF0
3FF0
03E0
0060
0030
0010
0010
0FF0
1FF0
3E00
3800
7000
6000
6000
6000
6000
C000
C000
C000
C000
C000
8000
8000
ENDCHAR
STARTCHAR char78
ENCODING 8750
SWIDTH 7500 0
DWIDTH 15 0
BBX 14 27 1 -11
BITMAP
3FF8
1FF8
01F0
0018
0008
07F8
0FF8
1FF8
1E00
3800
3FF0
7FF0
7FE0
DC00
1060
31F8
1FFC
1F1C
0F1C
0398
0198
00B0
0060
0040
00C0
0180
0200
ENDCHAR
STARTCHAR char79
ENCODING 8751
SWIDTH 7125 0
DWIDTH 15 0
BBX 13 25 1 -8
BITMAP
3FF0
1FE0
03C0
0100
0100
03E0
07F0
0FF0
1E08
1C08
3E08
3318
21F0
6000
6000
6000
6000
4000
4000
4000
4000
C000
8000
8000
8000
ENDCHAR
STARTCHAR char80
ENCODING 8752
SWIDTH 6375 0
DWIDTH 13 0
BBX 12 22 1 -5
BITMAP
FFE0
FFE0
E000
E000
E000
6300
6FE0
7FF0
20F0
2070
2070
1070
0070
0060
0040
00C0
0180
0100
0300
0200
0600
0400
ENDCHAR
STARTCHAR char81
ENCODING 8753
SWIDTH 6000 0
DWIDTH 12 0
BBX 11 16 1 1
BITMAP
1FE0
3FE0
4060
C060
C0E0
FF20
7E20
3820
6020
C020
B820
FE20
FFA0
03E0
00E0
0020
ENDCHAR
STARTCHAR char82
ENCODING 8754
SWIDTH 7125 0
DWIDTH 15 0
BBX 13 24 1 -8
BITMAP
7FE0
7FE0
7C00
6000
4000
4000
9E00
FF80
FFC0
07C0
00E0
0060
0030
0030
0030
0030
0030
0010
0010
0010
0008
0008
0008
0008
ENDCHAR
STARTCHAR char83
ENCODING 8755
SWIDTH 7125 0
DWIDTH 15 0
BBX 13 27 1 -11
BITMAP
7FE0
7FE0
7C00
6000
4C00
FF80
FFC0
3FE0
01E0
0030
3FF0
7FF0
7FC8
3800
60C0
43F0
7FF0
7C70
0E30
0730
0320
0160
00C0
0180
0180
0300
0600
ENDCHAR
STARTCHAR char84
ENCODING 8756
SWIDTH 6750 0
DWIDTH 14 0
BBX 12 25 1 -8
BITMAP
FFC0
7FC0
1C00
0C00
0400
3C00
FF00
FF80
8780
83C0
83C0
C6E0
7C60
0060
0060
0020
0030
0030
0030
0010
0010
0010
0010
0010
0010
ENDCHAR
STARTCHAR char85
ENCODING 8757
SWIDTH 7125 0
DWIDTH 15 0
BBX 13 15 1 2
BITMAP
7FB8
7F38
3018
6018
6018
4008
4008
D808
FF08
FFC8
7FE8
0078
0018
0018
0008
ENDCHAR
STARTCHAR char86
ENCODING 8758
SWIDTH 7125 0
DWIDTH 15 0
BBX 13 15 1 2
BITMAP
7FB8
7F38
3018
6078
60F8
4198
4108
C208
BE08
FF88
FFC8
00E8
0028
0018
0008
ENDCHAR
STARTCHAR char87
ENCODING 8759
SWIDTH 7125 0
DWIDTH 15 0
BBX 13 15 1 2
BITMAP
7FF8
7FF8
3018
6018
6018
4018
4008
8008
BE08
FF88
FFC8
00E8
0038
0018
0008
ENDCHAR
STARTCHAR char88
ENCODING 8760
SWIDTH 7500 0
DWIDTH 15 0
BBX 14 27 1 -11
BITMAP
7FF8
7FF8
7038
6018
4018
8018
FF18
FFC8
FFE8
0018
1FF8
1FF0
3FE0
1C00
1060
31F8
1FFC
1F1C
0F1C
0398
0198
00B0
0060
0060
00C0
0180
0200
ENDCHAR
STARTCHAR char89
ENCODING 8761
SWIDTH 7125 0
DWIDTH 15 0
BBX 13 15 1 2
BITMAP
7FB8
7F38
7C18
0C18
0418
3C18
7F08
7F88
C7C8
C3C8
C2E8
4268
7C38
3818
0008
ENDCHAR
STARTCHAR char90
ENCODING 8762
SWIDTH 7125 0
DWIDTH 15 0
BBX 13 18 1 2
BITMAP
0038
0078
0070
3FC0
7FC0
3F80
0C00
0400
0400
0F80
1BE0
60F0
E070
7030
3030
3830
1E60
1FC0
ENDCHAR
STARTCHAR char91
ENCODING 8763
SWIDTH 7875 0
DWIDTH 16 0
BBX 15 18 1 2
BITMAP
000E
001E
000C
3FF0
7FF0
3FE0
0600
0200
0FC0
3FF0
7FF8
7FFC
C20C
820C
820C
820C
4398
3FF0
ENDCHAR
STARTCHAR char92
ENCODING 8764
SWIDTH 8250 0
DWIDTH 17 0
BBX 15 20 1 1
BITMAP
0002
001E
001C
0010
7FF0
7FF0
7800
6000
6000
CFE0
FFE0
FFE0
C000
C000
9F80
FFC0
FFE0
0030
0010
0008
ENDCHAR
STARTCHAR char93
ENCODING 8765
SWIDTH 8250 0
DWIDTH 17 0
BBX 15 31 1 -11
BITMAP
000E
001E
001C
0010
7FF0
7FF0
7000
7FE0
FFC0
C000
C700
BFC0
FFE0
7FF0
3FF8
7FC0
7FC0
3000
60C0
C3F0
FFF0
3C70
0E30
0730
0360
0160
00C0
0180
0100
0200
0400
ENDCHAR
STARTCHAR char94
ENCODING 8766
SWIDTH 7125 0
DWIDTH 15 0
BBX 13 17 1 0
BITMAP
7C78
7CF0
8CF0
84C0
8460
C420
9FF8
1FF8
3FF8
1818
1018
3F08
3F88
01C8
00E8
0038
0008
ENDCHAR
STARTCHAR char95
ENCODING 8767
SWIDTH 7125 0
DWIDTH 15 0
BBX 13 23 1 -6
BITMAP
07F8
0FF0
1070
2030
67D0
6FF0
6DF0
E870
E870
ECF0
67B0
7030
7010
1810
0010
0008
0008
0008
0008
0008
0008
0008
0008
ENDCHAR
STARTCHAR char96
ENCODING 8768
SWIDTH 6750 0
DWIDTH 14 0
BBX 12 15 1 2
BITMAP
FFF0
FFF0
0070
0070
7F70
7FF0
7FB0
00F0
0030
1C10
7F10
7F90
C1D0
0070
0030
ENDCHAR
STARTCHAR char97
ENCODING 8769
SWIDTH 7500 0
DWIDTH 15 0
BBX 14 20 1 -3
BITMAP
1FF0
1FE0
30E0
6070
4070
4030
C010
C010
C030
E020
6060
67E0
27F0
0018
0008
0008
0004
0004
0004
0004
ENDCHAR
STARTCHAR char98
ENCODING 8770
SWIDTH 6750 0
DWIDTH 14 0
BBX 12 15 1 2
BITMAP
EE30
EE70
E630
C430
C410
C410
8210
8310
FF90
FFD0
7C70
0070
0030
0010
0010
ENDCHAR
STARTCHAR char99
ENCODING 8771
SWIDTH 7500 0
DWIDTH 15 0
BBX 14 15 1 2
BITMAP
7FE0
7FE0
0F00
0300
0300
0100
0200
1F00
7FC0
FFE0
C0F0
0030
0018
0008
0004
ENDCHAR
STARTCHAR char100
ENCODING 8772
SWIDTH 7125 0
DWIDTH 15 0
BBX 13 15 1 2
BITMAP
1F38
3F38
6318
C118
8118
C108
C108
E108
6208
6788
2FC8
0028
0018
0008
0008
ENDCHAR
STARTCHAR char101
ENCODING 8773
SWIDTH 7500 0
DWIDTH 15 0
BBX 14 23 2 -6
BITMAP
01FC
07FC
060C
0C0C
0C04
0404
060C
05FC
74FC
7C04
FC04
0604
0104
0104
0004
0004
0004
0004
0004
0004
0004
0004
0004
ENDCHAR
STARTCHAR char102
ENCODING 8774
SWIDTH 7500 0
DWIDTH 15 0
BBX 14 22 1 -5
BITMAP
FF00
FF80
C080
C0C0
C0C0
C0C0
C1C0
FFC0
9CD8
807C
80FC
80C0
8100
8100
8000
8000
8000
8000
8000
8000
8000
8000
ENDCHAR
STARTCHAR char103
ENCODING 8775
SWIDTH 7125 0
DWIDTH 15 0
BBX 13 15 1 2
BITMAP
7FB8
7F38
3E38
6798
4198
40D8
40C8
F868
FE28
FE38
0738
0198
0088
0008
0008
ENDCHAR
STARTCHAR char104
ENCODING 8776
SWIDTH 6375 0
DWIDTH 13 0
BBX 12 21 1 -4
BITMAP
FFC0
FFC0
7800
4000
C3E0
C7F0
F4F0
FC70
3C30
1E30
0E30
0660
0260
0060
0040
00C0
0080
0100
0100
0200
0600
ENDCHAR
STARTCHAR char105
ENCODING 8777
SWIDTH 7875 0
DWIDTH 16 0
BBX 15 15 1 2
BITMAP
EFEE
C7CE
C7CE
4DC6
4DC6
4EE6
4F66
4366
4136
4716
7F1A
7E0A
1C06
0002
0002
ENDCHAR
STARTCHAR char106
ENCODING 8778
SWIDTH 7875 0
DWIDTH 16 0
BBX 15 24 1 -8
BITMAP
7FFC
7FFC
071C
0F1C
398C
718C
E0CC
80CC
000C
000C
7F0C
7F8C
60CC
60C0
60C0
60E0
7FE0
4E3C
407E
40F8
4080
4000
4000
4000
ENDCHAR
STARTCHAR char99
ENCODING 8779
SWIDTH 7500 0
DWIDTH 15 0
BBX 14 15 1 2
BITMAP
7FE0
7FE0
0F00
0300
0300
0100
0200
1F00
7FC0
FFE0
C0F0
0030
0018
0008
0004
ENDCHAR
STARTCHAR char8780
ENCODING 8780
SWIDTH 9000 0
DWIDTH 18 0
BBX 15 14 2 0
BITMAP
FFFE
FFFE
FFFE
FFFE
FFFE
FFFE
FFFE
FFFE
FFFE
FFFE
FFFE
FFFE
FFFE
FFFE
ENDCHAR
STARTCHAR char8781
ENCODING 8781
SWIDTH 9000 0
DWIDTH 18 0
BBX 15 14 2 0
BITMAP
FFFE
FFFE
FFFE
FFFE
FFFE
FFFE
FFFE
FFFE
FFFE
FFFE
FFFE
FFFE
FFFE
FFFE
ENDCHAR
STARTCHAR char8782
ENCODING 8782
SWIDTH 9000 0
DWIDTH 18 0
BBX 15 14 2 0
BITMAP
FFFE
FFFE
FFFE
FFFE
FFFE
FFFE
FFFE
FFFE
FFFE
FFFE
FFFE
FFFE
FFFE
FFFE
ENDCHAR
STARTCHAR char8783
ENCODING 8783
SWIDTH 9000 0
DWIDTH 18 0
BBX 15 14 2 0
BITMAP
FFFE
FFFE
FFFE
FFFE
FFFE
FFFE
FFFE
FFFE
FFFE
FFFE
FFFE
FFFE
FFFE
FFFE
ENDCHAR
STARTCHAR char8784
ENCODING 8784
SWIDTH 9000 0
DWIDTH 18 0
BBX 15 14 2 0
BITMAP
FFFE
FFFE
FFFE
FFFE
FFFE
FFFE
FFFE
FFFE
FFFE
FFFE
FFFE
FFFE
FFFE
FFFE
ENDCHAR
STARTCHAR char8784
ENCODING 8785
SWIDTH 7875 0
DWIDTH 16 0
BBX 13 12 1 0
BITMAP
FDF8
8008
8008
0000
8008
8008
8008
8008
0000
8008
8008
DFB8
ENDCHAR
STARTCHAR char33
ENCODING 8786
SWIDTH 7500 0
DWIDTH 15 0
BBX 9 9 7 -8
BITMAP
3F00
7F00
C700
8300
8300
C300
4E00
1F00
0180
ENDCHAR
STARTCHAR char107
ENCODING 8787
SWIDTH 6750 0
DWIDTH 14 0
BBX 12 9 1 7
BITMAP
3000
7C00
FE00
8700
8180
F0C0
F060
6020
0010
ENDCHAR
STARTCHAR char107
ENCODING 8788
SWIDTH 5250 0
DWIDTH 11 0
BBX 11 24 0 -8
BITMAP
3000
7C00
FE00
8700
8180
F0C0
F040
0000
0000
0000
0000
0000
0000
0000
0000
0780
0FC0
11C0
20C0
20C0
30C0
1180
17C0
0060
ENDCHAR
STARTCHAR char108
ENCODING 8789
SWIDTH 7500 0
DWIDTH 15 0
BBX 13 9 2 -8
BITMAP
C000
6020
30F0
18F0
0C98
0F08
07C8
03F8
00E0
ENDCHAR
STARTCHAR char108
ENCODING 8790
SWIDTH 7500 0
DWIDTH 15 0
BBX 13 15 2 -11
BITMAP
07C0
0FC0
10C0
1040
1040
18C0
C9C0
63E0
3070
18F0
0CF8
0E08
07C8
03F8
00E0
ENDCHAR
STARTCHAR char111
ENCODING 8791
SWIDTH 9375 0
DWIDTH 19 0
BBX 12 21 0 -5
BITMAP
0180
07C0
0FE0
1C20
3820
61E0
40E0
8000
0000
0000
0000
0000
0000
0000
0000
0000
0010
FF10
FFD0
C3F0
0010
ENDCHAR
STARTCHAR char111
ENCODING 8792
SWIDTH 9375 0
DWIDTH 19 0
BBX 12 26 0 -10
BITMAP
0180
07C0
0FE0
1C20
3820
61E0
C0E0
8000
0000
0000
0000
0000
0010
FF10
FFD0
C3F0
0010
0F80
1F80
2380
6180
6080
6080
2300
27C0
00E0
ENDCHAR
STARTCHAR char111
ENCODING 8793
SWIDTH 10125 0
DWIDTH 21 0
BBX 13 25 0 -9
BITMAP
0380
07C0
0FC0
1C20
3860
61E0
C1C0
8000
0000
0000
0000
0000
0000
0E18
1F38
2338
4318
C118
C118
C108
C308
6708
67C8
07E8
0018
ENDCHAR
STARTCHAR char111
ENCODING 8794
SWIDTH 10125 0
DWIDTH 21 0
BBX 13 27 0 -11
BITMAP
0380
07C0
0FC0
1C20
3860
61E0
C1C0
8E18
1F38
3F38
4318
C118
C118
C108
C308
6708
6788
0FE8
07D8
0FC8
19C0
10C0
1040
1840
09C0
0BE0
0070
ENDCHAR
STARTCHAR char109
ENCODING 8795
SWIDTH 7125 0
DWIDTH 15 0
BBX 13 8 0 8
BITMAP
F800
7E00
3F80
0380
00C0
0060
0010
0008
ENDCHAR
STARTCHAR char112
ENCODING 8796
SWIDTH 7125 0
DWIDTH 15 0
BBX 13 9 0 7
BITMAP
F800
7E00
3F00
0380
7D80
7FC0
7FE0
0070
0008
ENDCHAR
STARTCHAR char110
ENCODING 8797
SWIDTH 7125 0
DWIDTH 15 0
BBX 17 8 -2 8
BITMAP
000180
003F00
007E00
00F000
F98000
7F8000
1F0000
010000
ENDCHAR
STARTCHAR char113
ENCODING 8798
SWIDTH 7125 0
DWIDTH 15 0
BBX 18 9 -2 8
BITMAP
000780
003F00
E07E00
7EE7C0
3F9F80
E7BF00
7E7000
3FC000
03C000
ENDCHAR
STARTCHAR char115
ENCODING 8799
SWIDTH 7125 0
DWIDTH 15 0
BBX 6 6 5 8
BITMAP
78
FC
CC
CC
FC
78
ENDCHAR
STARTCHAR char114
ENCODING 8800
SWIDTH 3000 0
DWIDTH 6 0
BBX 5 13 1 4
BITMAP
F8
D8
88
D8
70
00
00
00
70
D8
88
D8
F8
ENDCHAR
STARTCHAR char111
ENCODING 8801
SWIDTH 6750 0
DWIDTH 14 0
BBX 12 9 2 8
BITMAP
00C0
03E0
07E0
0E10
1C10
30F0
60F0
4060
8000
ENDCHAR
STARTCHAR char107
ENCODING 8802
SWIDTH 5250 0
DWIDTH 11 0
BBX 11 24 0 -8
BITMAP
0300
0F80
1FC0
3840
6040
C3C0
81C0
0000
0000
0000
0000
0000
0000
0000
0000
0780
0FC0
11C0
20C0
20C0
30C0
1180
17C0
0060
ENDCHAR
STARTCHAR char116
ENCODING 8803
SWIDTH 7125 0
DWIDTH 15 0
BBX 9 11 3 8
BITMAP
0800
0800
0800
0C00
0600
3700
3E00
9D80
C300
7E00
3C00
ENDCHAR
STARTCHAR char115
ENCODING 8804
SWIDTH 7125 0
DWIDTH 15 0
BBX 9 8 2 8
BITMAP
1C00
3E00
6600
6600
3C80
DB00
7E00
1C00
ENDCHAR
STARTCHAR char119
ENCODING 8805
SWIDTH 7125 0
DWIDTH 15 0
BBX 10 7 8 -6
BITMAP
F000
7800
3C00
0200
0100
0080
0040
ENDCHAR
STARTCHAR char118
ENCODING 8806
SWIDTH 7500 0
DWIDTH 15 0
BBX 14 23 1 -6
BITMAP
1FC0
3FC0
63C0
80C0
80C0
C1F0
73F8
74F8
2C3C
0C1C
0E0C
0F8C
078C
0008
0008
0018
0018
0018
0010
0010
0018
001C
000C
ENDCHAR
STARTCHAR char120
ENCODING 8807
SWIDTH 7125 0
DWIDTH 15 0
BBX 3 8 5 15
BITMAP
60
60
60
40
80
A0
E0
E0
ENDCHAR
STARTCHAR char121
ENCODING 8808
SWIDTH 7125 0
DWIDTH 15 0
BBX 1 7 7 15
BITMAP
80
80
80
80
80
80
80
ENDCHAR
STARTCHAR char122
ENCODING 8809
SWIDTH 7125 0
DWIDTH 15 0
BBX 11 9 2 7
BITMAP
FFE0
FFE0
3180
0E00
0E00
1F00
60C0
FFE0
FFE0
ENDCHAR
STARTCHAR char123
ENCODING 8810
SWIDTH 7125 0
DWIDTH 15 0
BBX 12 9 2 8
BITMAP
3FC0
7FE0
C630
C610
8610
8610
C630
C630
0600
ENDCHAR
STARTCHAR char124
ENCODING 8811
SWIDTH 7125 0
DWIDTH 15 0
BBX 11 9 2 7
BITMAP
F1E0
9120
9120
9120
9120
9120
9120
9120
9F20
ENDCHAR
STARTCHAR char125
ENCODING 8812
SWIDTH 7125 0
DWIDTH 15 0
BBX 12 9 2 7
BITMAP
3C60
7CF0
C490
8490
8C80
8C80
9F80
C180
0080
ENDCHAR
STARTCHAR char8784
ENCODING 8813
SWIDTH 9000 0
DWIDTH 18 0
BBX 15 14 2 0
BITMAP
FFFE
FFFE
FFFE
FFFE
FFFE
FFFE
FFFE
FFFE
FFFE
FFFE
FFFE
FFFE
FFFE
FFFE
ENDCHAR
STARTCHAR char8784
ENCODING 8814
SWIDTH 9000 0
DWIDTH 18 0
BBX 15 14 2 0
BITMAP
FFFE
FFFE
FFFE
FFFE
FFFE
FFFE
FFFE
FFFE
FFFE
FFFE
FFFE
FFFE
FFFE
FFFE
ENDCHAR
STARTCHAR char8784
ENCODING 8815
SWIDTH 9000 0
DWIDTH 18 0
BBX 15 14 2 0
BITMAP
FFFE
FFFE
FFFE
FFFE
FFFE
FFFE
FFFE
FFFE
FFFE
FFFE
FFFE
FFFE
FFFE
FFFE
ENDCHAR
STARTCHAR char8779
ENCODING 8816
SWIDTH 9000 0
DWIDTH 18 0
BBX 15 14 2 0
BITMAP
FFFE
FFFE
FFFE
FFFE
FFFE
FFFE
FFFE
FFFE
FFFE
FFFE
FFFE
FFFE
FFFE
FFFE
ENDCHAR
STARTCHAR char8780
ENCODING 8817
SWIDTH 9000 0
DWIDTH 18 0
BBX 15 14 2 0
BITMAP
FFFE
FFFE
FFFE
FFFE
FFFE
FFFE
FFFE
FFFE
FFFE
FFFE
FFFE
FFFE
FFFE
FFFE
ENDCHAR
STARTCHAR char8781
ENCODING 8818
SWIDTH 9000 0
DWIDTH 18 0
BBX 15 14 2 0
BITMAP
FFFE
FFFE
FFFE
FFFE
FFFE
FFFE
FFFE
FFFE
FFFE
FFFE
FFFE
FFFE
FFFE
FFFE
ENDCHAR
STARTCHAR char8782
ENCODING 8819
SWIDTH 9000 0
DWIDTH 18 0
BBX 15 14 2 0
BITMAP
FFFE
FFFE
FFFE
FFFE
FFFE
FFFE
FFFE
FFFE
FFFE
FFFE
FFFE
FFFE
FFFE
FFFE
ENDCHAR
STARTCHAR char8783
ENCODING 8820
SWIDTH 9000 0
DWIDTH 18 0
BBX 15 14 2 0
BITMAP
FFFE
FFFE
FFFE
FFFE
FFFE
FFFE
FFFE
FFFE
FFFE
FFFE
FFFE
FFFE
FFFE
FFFE
ENDCHAR
STARTCHAR char8779
ENCODING 8821
SWIDTH 9000 0
DWIDTH 18 0
BBX 15 14 2 0
BITMAP
FFFE
FFFE
FFFE
FFFE
FFFE
FFFE
FFFE
FFFE
FFFE
FFFE
FFFE
FFFE
FFFE
FFFE
ENDCHAR
STARTCHAR char8780
ENCODING 8822
SWIDTH 9000 0
DWIDTH 18 0
BBX 15 14 2 0
BITMAP
FFFE
FFFE
FFFE
FFFE
FFFE
FFFE
FFFE
FFFE
FFFE
FFFE
FFFE
FFFE
FFFE
FFFE
ENDCHAR
STARTCHAR char8781
ENCODING 8823
SWIDTH 9000 0
DWIDTH 18 0
BBX 15 14 2 0
BITMAP
FFFE
FFFE
FFFE
FFFE
FFFE
FFFE
FFFE
FFFE
FFFE
FFFE
FFFE
FFFE
FFFE
FFFE
ENDCHAR
STARTCHAR char8782
ENCODING 8824
SWIDTH 9000 0
DWIDTH 18 0
BBX 15 14 2 0
BITMAP
FFFE
FFFE
FFFE
FFFE
FFFE
FFFE
FFFE
FFFE
FFFE
FFFE
FFFE
FFFE
FFFE
FFFE
ENDCHAR
STARTCHAR char8783
ENCODING 8825
SWIDTH 9000 0
DWIDTH 18 0
BBX 15 14 2 0
BITMAP
FFFE
FFFE
FFFE
FFFE
FFFE
FFFE
FFFE
FFFE
FFFE
FFFE
FFFE
FFFE
FFFE
FFFE
ENDCHAR
STARTCHAR char8779
ENCODING 8826
SWIDTH 9000 0
DWIDTH 18 0
BBX 15 14 2 0
BITMAP
FFFE
FFFE
FFFE
FFFE
FFFE
FFFE
FFFE
FFFE
FFFE
FFFE
FFFE
FFFE
FFFE
FFFE
ENDCHAR
STARTCHAR char8780
ENCODING 8827
SWIDTH 9000 0
DWIDTH 18 0
BBX 15 14 2 0
BITMAP
FFFE
FFFE
FFFE
FFFE
FFFE
FFFE
FFFE
FFFE
FFFE
FFFE
FFFE
FFFE
FFFE
FFFE
ENDCHAR
STARTCHAR char8781
ENCODING 8828
SWIDTH 9000 0
DWIDTH 18 0
BBX 15 14 2 0
BITMAP
FFFE
FFFE
FFFE
FFFE
FFFE
FFFE
FFFE
FFFE
FFFE
FFFE
FFFE
FFFE
FFFE
FFFE
ENDCHAR
STARTCHAR char8782
ENCODING 8829
SWIDTH 9000 0
DWIDTH 18 0
BBX 15 14 2 0
BITMAP
FFFE
FFFE
FFFE
FFFE
FFFE
FFFE
FFFE
FFFE
FFFE
FFFE
FFFE
FFFE
FFFE
FFFE
ENDCHAR
STARTCHAR char8783
ENCODING 8830
SWIDTH 9000 0
DWIDTH 18 0
BBX 15 14 2 0
BITMAP
FFFE
FFFE
FFFE
FFFE
FFFE
FFFE
FFFE
FFFE
FFFE
FFFE
FFFE
FFFE
FFFE
FFFE
ENDCHAR
STARTCHAR char1
ENCODING 8993
SWIDTH 7125 0
DWIDTH 15 0
BBX 13 12 1 5
BITMAP
7FF8
7FF8
0F18
0318
1918
7998
F188
8088
00C8
0048
0048
0008
ENDCHAR
STARTCHAR char2
ENCODING 8994
SWIDTH 7125 0
DWIDTH 15 0
BBX 13 12 1 5
BITMAP
3FF8
7FF8
43F8
C218
C618
C408
CD08
C7C8
C3F8
8038
8008
8000
ENDCHAR
STARTCHAR char3
ENCODING 8995
SWIDTH 6750 0
DWIDTH 14 0
BBX 12 12 1 5
BITMAP
FFF0
FFF0
7330
63B0
C1B0
8190
F890
FE90
8790
0190
0090
0010
ENDCHAR
STARTCHAR char4
ENCODING 8996
SWIDTH 6750 0
DWIDTH 14 0
BBX 12 23 1 -6
BITMAP
FFF0
FFF0
7330
41B0
C190
FC90
FE90
0390
0090
7FC0
7FC0
7FC0
2000
40C0
47F0
7FF0
3C30
0E30
0620
0240
0180
0200
0800
ENDCHAR
STARTCHAR char5
ENCODING 8997
SWIDTH 6750 0
DWIDTH 14 0
BBX 12 11 1 6
BITMAP
7FF0
7FE0
3000
2000
6000
6000
5E00
FF80
FFC0
80E0
0010
ENDCHAR
STARTCHAR char6
ENCODING 8998
SWIDTH 6750 0
DWIDTH 14 0
BBX 12 12 1 5
BITMAP
7FC0
7FC0
0C00
0400
0400
0FC0
31E0
E070
6030
3030
3C20
1FC0
ENDCHAR
STARTCHAR char7
ENCODING 8999
SWIDTH 7125 0
DWIDTH 15 0
BBX 13 12 1 5
BITMAP
7FF0
3FE0
0600
0200
3FE0
7FF0
7238
C208
8208
8208
4210
3FE0
ENDCHAR
STARTCHAR char8
ENCODING 9000
SWIDTH 6750 0
DWIDTH 14 0
BBX 12 12 1 5
BITMAP
7FF0
7FF0
7000
6000
C000
FFE0
FFC0
C000
C000
BFC0
FFE0
0030
ENDCHAR
STARTCHAR char9001
ENCODING 9001
SWIDTH 9000 0
DWIDTH 18 0
BBX 15 14 2 0
BITMAP
FFFE
FFFE
FFFE
FFFE
FFFE
FFFE
FFFE
FFFE
FFFE
FFFE
FFFE
FFFE
FFFE
FFFE
ENDCHAR
STARTCHAR char10
ENCODING 9002
SWIDTH 6375 0
DWIDTH 13 0
BBX 12 15 1 2
BITMAP
3F00
7F80
8380
8080
8080
E7E0
7FE0
18F0
1830
1C30
1F30
0F30
0060
00C0
0300
ENDCHAR
STARTCHAR char11
ENCODING 9003
SWIDTH 6375 0
DWIDTH 13 0
BBX 12 12 1 5
BITMAP
7FF0
7FF0
0070
0070
3E60
7F60
F0E0
E040
E000
6000
3000
1800
ENDCHAR
STARTCHAR char12
ENCODING 9004
SWIDTH 6375 0
DWIDTH 13 0
BBX 12 13 1 4
BITMAP
FF00
FFC0
C060
C020
FFE0
CFC0
C0C0
8060
83E0
8FF0
9F00
B000
C000
ENDCHAR
STARTCHAR char13
ENCODING 9005
SWIDTH 6750 0
DWIDTH 14 0
BBX 12 13 1 4
BITMAP
7FF0
3FF0
01C0
0020
0030
0FD0
1FF0
3F80
3000
6000
6000
C000
8000
ENDCHAR
STARTCHAR char14
ENCODING 9006
SWIDTH 6750 0
DWIDTH 14 0
BBX 12 21 1 -5
BITMAP
FFC0
7FC0
0380
0E80
3FC0
7FC0
7800
FFC0
FFC0
7F80
7000
4000
C3E0
EFF0
FC70
1C30
0C60
06C0
0300
0700
0C00
ENDCHAR
STARTCHAR char15
ENCODING 9007
SWIDTH 6375 0
DWIDTH 13 0
BBX 12 16 1 1
BITMAP
3FE0
3FE0
0300
0200
03C0
07E0
0F30
1E10
3E10
3230
61E0
6000
4000
4000
C000
8000
ENDCHAR
STARTCHAR char16
ENCODING 9008
SWIDTH 6375 0
DWIDTH 13 0
BBX 12 13 1 4
BITMAP
7FE0
7FE0
E000
E000
63C0
6FE0
30F0
3070
1030
0030
00E0
01C0
0700
ENDCHAR
STARTCHAR char17
ENCODING 9009
SWIDTH 6000 0
DWIDTH 12 0
BBX 11 13 1 4
BITMAP
1FE0
3FE0
6060
8060
FFE0
7E60
6060
4060
FC20
FE20
9F20
01A0
0060
ENDCHAR
STARTCHAR char18
ENCODING 9010
SWIDTH 6750 0
DWIDTH 14 0
BBX 12 12 1 5
BITMAP
FFE0
7FC0
3C00
6000
C000
BF00
FF80
1FC0
00C0
0060
0020
0010
ENDCHAR
STARTCHAR char19
ENCODING 9011
SWIDTH 7125 0
DWIDTH 15 0
BBX 13 23 1 -6
BITMAP
7FF0
7FE0
3C00
6000
4400
7F80
7FC0
03C0
00E0
7FF0
7F90
7F98
6000
C1C0
87E0
FFF0
7C30
1C30
0C60
06C0
0380
0500
0800
ENDCHAR
STARTCHAR char20
ENCODING 9012
SWIDTH 6375 0
DWIDTH 13 0
BBX 12 15 1 2
BITMAP
7FE0
7FC0
0E00
0400
3C00
7E00
CF00
83C0
87C0
7E60
3860
0020
0030
0010
0010
ENDCHAR
STARTCHAR char21
ENCODING 9013
SWIDTH 7125 0
DWIDTH 15 0
BBX 13 11 1 6
BITMAP
7FB8
7F38
7018
6018
4018
4018
BC08
FF88
7FE8
0078
0008
ENDCHAR
STARTCHAR char22
ENCODING 9014
SWIDTH 7125 0
DWIDTH 15 0
BBX 13 11 1 6
BITMAP
7FB8
7F38
7038
60D8
4198
4318
BE08
FF88
7FE8
0078
0018
ENDCHAR
STARTCHAR char23
ENCODING 9015
SWIDTH 7125 0
DWIDTH 15 0
BBX 13 11 1 6
BITMAP
7FF8
7FF8
7018
6018
4018
C018
BC08
FF88
7FE8
0078
0018
ENDCHAR
STARTCHAR char24
ENCODING 9016
SWIDTH 7125 0
DWIDTH 15 0
BBX 13 22 1 -5
BITMAP
7FF8
7FF8
7018
6018
4018
BE08
FFC8
7FE8
0038
3FE0
7FE0
3FC0
2000
21F0
63F8
7E38
3E18
0E18
0330
0160
0080
0100
ENDCHAR
STARTCHAR char25
ENCODING 9017
SWIDTH 7125 0
DWIDTH 15 0
BBX 13 11 1 6
BITMAP
7FB8
7F38
3C18
0C18
3E18
7F18
7F88
83C8
8268
7C38
0008
ENDCHAR
STARTCHAR char26
ENCODING 9018
SWIDTH 7125 0
DWIDTH 15 0
BBX 13 15 1 5
BITMAP
0038
0070
0040
7FC0
7FC0
0C00
0400
0400
0FC0
39F0
E070
6030
3030
3C20
1FC0
ENDCHAR
STARTCHAR char27
ENCODING 9019
SWIDTH 7875 0
DWIDTH 16 0
BBX 15 15 1 5
BITMAP
001E
001C
0010
7FF0
3FF0
0600
0200
3FE0
7FF8
723C
C20C
820C
820C
4318
3FF0
ENDCHAR
STARTCHAR char28
ENCODING 9020
SWIDTH 8250 0
DWIDTH 17 0
BBX 15 15 1 5
BITMAP
000E
001C
0010
7FF0
7FF0
7000
6000
4000
DFE0
FFC0
C000
8000
BFC0
FFE0
0030
ENDCHAR
STARTCHAR char29
ENCODING 9021
SWIDTH 8250 0
DWIDTH 17 0
BBX 15 26 1 -6
BITMAP
000E
001C
0010
7FF0
7FF0
7000
6000
FFE0
FFC0
C000
BFC0
FFE0
0018
3FE0
7FE0
1C00
2000
21F0
63F8
7C38
1E18
0638
0330
0140
0180
0200
ENDCHAR
STARTCHAR char30
ENCODING 9022
SWIDTH 7125 0
DWIDTH 15 0
BBX 5 9 10 8
BITMAP
08
08
18
38
68
C8
68
38
08
ENDCHAR
STARTCHAR char31
ENCODING 9023
SWIDTH 6750 0
DWIDTH 14 0
BBX 12 14 1 3
BITMAP
0FF0
1FF0
3070
2330
4FE0
DFE0
D860
E8E0
EF70
F030
3030
0010
0010
0010
ENDCHAR
STARTCHAR char32
ENCODING 9024
SWIDTH 6750 0
DWIDTH 14 0
BBX 12 12 1 5
BITMAP
FFF0
FFF0
0070
3E30
7FB0
7FD0
0030
0030
3F10
FF90
C1F0
0030
ENDCHAR
STARTCHAR char252
ENCODING 9025
SWIDTH 7500 0
DWIDTH 15 0
BBX 14 11 1 6
BITMAP
0FF8
3FF0
7030
4018
C018
C010
C010
E020
63F0
23F8
0004
ENDCHAR
STARTCHAR char34
ENCODING 9026
SWIDTH 7500 0
DWIDTH 15 0
BBX 13 10 2 7
BITMAP
0010
0010
0010
E010
9FF0
47E8
3018
1E70
0FE0
03C0
ENDCHAR
STARTCHAR char35
ENCODING 9027
SWIDTH 7500 0
DWIDTH 15 0
BBX 12 6 3 11
BITMAP
0010
0010
7E10
FFD0
C3F0
0030
ENDCHAR
STARTCHAR char36
ENCODING 9028
SWIDTH 7125 0
DWIDTH 15 0
BBX 13 12 1 5
BITMAP
1F38
3F38
6318
4318
C118
C118
C108
C208
6708
67E8
07F8
0018
ENDCHAR
STARTCHAR char37
ENCODING 9029
SWIDTH 7125 0
DWIDTH 15 0
BBX 13 12 1 5
BITMAP
03F8
07F8
0C08
0C08
0C18
0E38
F9C8
F808
FC08
0408
0008
0008
ENDCHAR
STARTCHAR char38
ENCODING 9030
SWIDTH 7125 0
DWIDTH 15 0
BBX 14 12 1 5
BITMAP
FE00
FF80
C0C0
C0C0
C0C0
F3C0
9CF8
80FC
80FC
8100
8000
8000
ENDCHAR
STARTCHAR char39
ENCODING 9031
SWIDTH 6375 0
DWIDTH 13 0
BBX 12 10 1 7
BITMAP
7E70
7E70
7E30
C730
83B0
F1D0
F8D0
1C70
0630
0010
ENDCHAR
STARTCHAR char40
ENCODING 9032
SWIDTH 6375 0
DWIDTH 13 0
BBX 12 13 1 4
BITMAP
7FC0
7FC0
7000
4000
C3E0
87F0
F070
7830
1C30
0E60
0660
00C0
0100
ENDCHAR
STARTCHAR char41
ENCODING 9033
SWIDTH 7125 0
DWIDTH 15 0
BBX 13 13 1 4
BITMAP
CFB8
CFB8
CF18
5B18
5398
7D88
4788
42C8
4268
6428
7C18
3818
0008
ENDCHAR
STARTCHAR char42
ENCODING 9034
SWIDTH 8250 0
DWIDTH 17 0
BBX 15 20 1 -3
BITMAP
7FF8
7FF8
0F18
0318
3B18
7198
E188
8088
0088
0048
7F88
7F88
6040
6040
60C0
79C0
6F40
607E
607E
0080
ENDCHAR
STARTCHAR char253
ENCODING 9035
SWIDTH 7125 0
DWIDTH 15 0
BBX 13 13 1 4
BITMAP
7878
FCF8
8C60
8C30
DFF8
9FF8
1C18
1E08
3F08
2388
00E8
0038
0008
ENDCHAR
STARTCHAR char254
ENCODING 9036
SWIDTH 7125 0
DWIDTH 15 0
BBX 13 12 1 5
BITMAP
6718
6738
6618
6208
C208
8308
C388
FFC8
7C68
0018
0008
0008
ENDCHAR
STARTCHAR char255
ENCODING 9037
SWIDTH 7875 0
DWIDTH 16 0
BBX 15 12 1 5
BITMAP
3FF8
3FF0
0700
0180
0080
0180
3FC0
7FC0
E0F0
8038
000C
0002
ENDCHAR
STARTCHAR char9039
ENCODING 9038
SWIDTH 9000 0
DWIDTH 18 0
BBX 15 14 2 0
BITMAP
FFFE
FFFE
FFFE
FFFE
FFFE
FFFE
FFFE
FFFE
FFFE
FFFE
FFFE
FFFE
FFFE
FFFE
ENDCHAR
STARTCHAR char8525
ENCODING 9039
SWIDTH 8250 0
DWIDTH 17 0
BBX 15 14 1 3
BITMAP
000E
F01E
783C
3878
1CE0
0FC0
0780
0300
0780
0CC0
1860
3030
6018
C00C
ENDCHAR
STARTCHAR char8550
ENCODING 9040
SWIDTH 8625 0
DWIDTH 18 0
BBX 16 17 1 0
BITMAP
0180
0183
7987
7D8F
3C1E
1C3C
0E70
C7E3
E3C7
E387
47C2
0C60
1830
3198
618C
4184
0180
ENDCHAR
STARTCHAR char9042
ENCODING 9041
SWIDTH 8625 0
DWIDTH 18 0
BBX 16 12 1 3
BITMAP
0FF0
1FF8
7C3E
E007
C003
C003
C003
C003
6006
7C3E
1FF8
0FF0
ENDCHAR
STARTCHAR char9043
ENCODING 9042
SWIDTH 7125 0
DWIDTH 15 0
BBX 13 9 1 5
BITMAP
3FC0
6060
C030
C018
C018
C018
6030
3060
1FC0
ENDCHAR
STARTCHAR char9044
ENCODING 9043
SWIDTH 12000 0
DWIDTH 24 0
BBX 15 17 1 0
BITMAP
0380
03F8
031C
000E
0FE6
1836
101E
301C
701C
7018
F010
D830
CFE0
E000
7180
3F80
0380
ENDCHAR
STARTCHAR char9045
ENCODING 9044
SWIDTH 7125 0
DWIDTH 15 0
BBX 13 12 1 4
BITMAP
1FC0
38E0
6FB0
D8D8
F078
F678
F678
F678
D6F8
6FB0
3660
1FC0
ENDCHAR
STARTCHAR char9046
ENCODING 9045
SWIDTH 7875 0
DWIDTH 16 0
BBX 15 28 0 -11
BITMAP
0300
3330
1FE0
0F60
1B60
1B60
1B60
0FC0
0780
07C0
07C0
0380
0FE0
3FF8
7FFC
701C
600C
600C
600C
600C
600C
600C
600C
600C
600C
FFFE
FFFE
1FF0
ENDCHAR
STARTCHAR char9046
ENCODING 9046
SWIDTH 7125 0
DWIDTH 15 0
BBX 13 30 1 -14
BITMAP
0600
2660
3FC0
1EC0
36C0
36C0
36C0
1F80
0F00
0F80
38E0
6070
FDB8
C738
F778
B7D8
CD18
CD98
6DB0
36E0
1FC0
0F00
1F80
36C0
36C0
36C0
1EC0
3FC0
2660
0600
ENDCHAR
STARTCHAR char9048
ENCODING 9047
SWIDTH 12375 0
DWIDTH 25 0
BBX 24 10 1 -15
BITMAP
800002
D81836
FF39FE
E1C78E
6D9BBE
7D9BAE
3F9BFC
3FFFFC
2D99B2
5B18D9
ENDCHAR
STARTCHAR char9046
ENCODING 9048
SWIDTH 16125 0
DWIDTH 33 0
BBX 31 30 1 -14
BITMAP
00030000
00133000
001FE000
000F6000
001B6000
001B6000
001B6000
000FC000
00078000
0007C000
001C7000
6E3038EC
3F7EDDF8
21E39F18
FFFBBFFE
FFDBEFFE
31E68F08
3F66DDF8
6E36D8EC
001B7000
000FE000
00078000
000FC000
001B6000
001B6000
001B6000
000F6000
001FE000
00133000
00030000
ENDCHAR
STARTCHAR char9050
ENCODING 9049
SWIDTH 6375 0
DWIDTH 13 0
BBX 12 28 1 -12
BITMAP
0600
C660
7FC0
3680
66C0
66C0
76C0
3F80
1F00
0F00
0F00
0F00
0F00
FFF0
79E0
6960
6F60
6660
76E0
30C0
30C0
1980
1980
0F80
0F00
0600
0600
0600
ENDCHAR
STARTCHAR char9051
ENCODING 9050
SWIDTH 8250 0
DWIDTH 17 0
BBX 15 15 1 1
BITMAP
0FE0
1FF0
37D8
6C6C
EFEE
CFE6
C386
C006
C006
C006
C006
C006
600C
3018
1FF0
ENDCHAR
STARTCHAR char9053
ENCODING 9051
SWIDTH 7125 0
DWIDTH 15 0
BBX 13 12 1 3
BITMAP
1F80
30E0
6070
F838
C418
DED8
9BD8
C118
C0F8
6030
3860
1FC0
ENDCHAR
STARTCHAR char9053
ENCODING 9052
SWIDTH 7125 0
DWIDTH 15 0
BBX 13 12 1 3
BITMAP
0F80
38E0
6070
FDB8
C738
F778
B7D8
CD18
CD98
6DB0
36E0
1FC0
ENDCHAR
STARTCHAR char9053
ENCODING 9053
SWIDTH 7125 0
DWIDTH 15 0
BBX 13 12 1 3
BITMAP
1FC0
39E0
6370
FB58
C598
DFC8
DFD8
8D98
CBF8
6B30
3EE0
1FC0
ENDCHAR
STARTCHAR char9039
ENCODING 9054
SWIDTH 9000 0
DWIDTH 18 0
BBX 15 14 2 0
BITMAP
FFFE
FFFE
FFFE
FFFE
FFFE
FFFE
FFFE
FFFE
FFFE
FFFE
FFFE
FFFE
FFFE
FFFE
ENDCHAR
STARTCHAR char9039
ENCODING 9055
SWIDTH 9000 0
DWIDTH 18 0
BBX 15 14 2 0
BITMAP
FFFE
FFFE
FFFE
FFFE
FFFE
FFFE
FFFE
FFFE
FFFE
FFFE
FFFE
FFFE
FFFE
FFFE
ENDCHAR
STARTCHAR char8526
ENCODING 9056
SWIDTH 9000 0
DWIDTH 18 0
BBX 17 17 1 -1
BITMAP
0E3800
077000
03E000
01C000
01E000
037000
063800
0C1800
000000
C36180
663300
7C1F00
180C00
1C0E00
361B00
673180
C16080
ENDCHAR
STARTCHAR char8779
ENCODING 9057
SWIDTH 9000 0
DWIDTH 18 0
BBX 15 14 2 0
BITMAP
FFFE
FFFE
FFFE
FFFE
FFFE
FFFE
FFFE
FFFE
FFFE
FFFE
FFFE
FFFE
FFFE
FFFE
ENDCHAR
STARTCHAR char8780
ENCODING 9058
SWIDTH 9000 0
DWIDTH 18 0
BBX 15 14 2 0
BITMAP
FFFE
FFFE
FFFE
FFFE
FFFE
FFFE
FFFE
FFFE
FFFE
FFFE
FFFE
FFFE
FFFE
FFFE
ENDCHAR
STARTCHAR char8781
ENCODING 9059
SWIDTH 9000 0
DWIDTH 18 0
BBX 15 14 2 0
BITMAP
FFFE
FFFE
FFFE
FFFE
FFFE
FFFE
FFFE
FFFE
FFFE
FFFE
FFFE
FFFE
FFFE
FFFE
ENDCHAR
STARTCHAR char8782
ENCODING 9060
SWIDTH 9000 0
DWIDTH 18 0
BBX 15 14 2 0
BITMAP
FFFE
FFFE
FFFE
FFFE
FFFE
FFFE
FFFE
FFFE
FFFE
FFFE
FFFE
FFFE
FFFE
FFFE
ENDCHAR
STARTCHAR char8783
ENCODING 9061
SWIDTH 9000 0
DWIDTH 18 0
BBX 15 14 2 0
BITMAP
FFFE
FFFE
FFFE
FFFE
FFFE
FFFE
FFFE
FFFE
FFFE
FFFE
FFFE
FFFE
FFFE
FFFE
ENDCHAR
STARTCHAR char8779
ENCODING 9062
SWIDTH 9000 0
DWIDTH 18 0
BBX 15 14 2 0
BITMAP
FFFE
FFFE
FFFE
FFFE
FFFE
FFFE
FFFE
FFFE
FFFE
FFFE
FFFE
FFFE
FFFE
FFFE
ENDCHAR
STARTCHAR char8780
ENCODING 9063
SWIDTH 9000 0
DWIDTH 18 0
BBX 15 14 2 0
BITMAP
FFFE
FFFE
FFFE
FFFE
FFFE
FFFE
FFFE
FFFE
FFFE
FFFE
FFFE
FFFE
FFFE
FFFE
ENDCHAR
STARTCHAR char8781
ENCODING 9064
SWIDTH 9000 0
DWIDTH 18 0
BBX 15 14 2 0
BITMAP
FFFE
FFFE
FFFE
FFFE
FFFE
FFFE
FFFE
FFFE
FFFE
FFFE
FFFE
FFFE
FFFE
FFFE
ENDCHAR
STARTCHAR char8782
ENCODING 9065
SWIDTH 9000 0
DWIDTH 18 0
BBX 15 14 2 0
BITMAP
FFFE
FFFE
FFFE
FFFE
FFFE
FFFE
FFFE
FFFE
FFFE
FFFE
FFFE
FFFE
FFFE
FFFE
ENDCHAR
STARTCHAR char8783
ENCODING 9066
SWIDTH 9000 0
DWIDTH 18 0
BBX 15 14 2 0
BITMAP
FFFE
FFFE
FFFE
FFFE
FFFE
FFFE
FFFE
FFFE
FFFE
FFFE
FFFE
FFFE
FFFE
FFFE
ENDCHAR
STARTCHAR char8779
ENCODING 9067
SWIDTH 9000 0
DWIDTH 18 0
BBX 15 14 2 0
BITMAP
FFFE
FFFE
FFFE
FFFE
FFFE
FFFE
FFFE
FFFE
FFFE
FFFE
FFFE
FFFE
FFFE
FFFE
ENDCHAR
STARTCHAR char8780
ENCODING 9068
SWIDTH 9000 0
DWIDTH 18 0
BBX 15 14 2 0
BITMAP
FFFE
FFFE
FFFE
FFFE
FFFE
FFFE
FFFE
FFFE
FFFE
FFFE
FFFE
FFFE
FFFE
FFFE
ENDCHAR
STARTCHAR char8781
ENCODING 9069
SWIDTH 9000 0
DWIDTH 18 0
BBX 15 14 2 0
BITMAP
FFFE
FFFE
FFFE
FFFE
FFFE
FFFE
FFFE
FFFE
FFFE
FFFE
FFFE
FFFE
FFFE
FFFE
ENDCHAR
STARTCHAR char8782
ENCODING 9070
SWIDTH 9000 0
DWIDTH 18 0
BBX 15 14 2 0
BITMAP
FFFE
FFFE
FFFE
FFFE
FFFE
FFFE
FFFE
FFFE
FFFE
FFFE
FFFE
FFFE
FFFE
FFFE
ENDCHAR
STARTCHAR char8783
ENCODING 9071
SWIDTH 9000 0
DWIDTH 18 0
BBX 15 14 2 0
BITMAP
FFFE
FFFE
FFFE
FFFE
FFFE
FFFE
FFFE
FFFE
FFFE
FFFE
FFFE
FFFE
FFFE
FFFE
ENDCHAR
STARTCHAR char8779
ENCODING 9072
SWIDTH 9000 0
DWIDTH 18 0
BBX 15 14 2 0
BITMAP
FFFE
FFFE
FFFE
FFFE
FFFE
FFFE
FFFE
FFFE
FFFE
FFFE
FFFE
FFFE
FFFE
FFFE
ENDCHAR
STARTCHAR char8780
ENCODING 9073
SWIDTH 9000 0
DWIDTH 18 0
BBX 15 14 2 0
BITMAP
FFFE
FFFE
FFFE
FFFE
FFFE
FFFE
FFFE
FFFE
FFFE
FFFE
FFFE
FFFE
FFFE
FFFE
ENDCHAR
STARTCHAR char8781
ENCODING 9074
SWIDTH 9000 0
DWIDTH 18 0
BBX 15 14 2 0
BITMAP
FFFE
FFFE
FFFE
FFFE
FFFE
FFFE
FFFE
FFFE
FFFE
FFFE
FFFE
FFFE
FFFE
FFFE
ENDCHAR
STARTCHAR char8782
ENCODING 9075
SWIDTH 9000 0
DWIDTH 18 0
BBX 15 14 2 0
BITMAP
FFFE
FFFE
FFFE
FFFE
FFFE
FFFE
FFFE
FFFE
FFFE
FFFE
FFFE
FFFE
FFFE
FFFE
ENDCHAR
STARTCHAR char8783
ENCODING 9076
SWIDTH 9000 0
DWIDTH 18 0
BBX 15 14 2 0
BITMAP
FFFE
FFFE
FFFE
FFFE
FFFE
FFFE
FFFE
FFFE
FFFE
FFFE
FFFE
FFFE
FFFE
FFFE
ENDCHAR
STARTCHAR char8779
ENCODING 9077
SWIDTH 9000 0
DWIDTH 18 0
BBX 15 14 2 0
BITMAP
FFFE
FFFE
FFFE
FFFE
FFFE
FFFE
FFFE
FFFE
FFFE
FFFE
FFFE
FFFE
FFFE
FFFE
ENDCHAR
STARTCHAR char8780
ENCODING 9078
SWIDTH 9000 0
DWIDTH 18 0
BBX 15 14 2 0
BITMAP
FFFE
FFFE
FFFE
FFFE
FFFE
FFFE
FFFE
FFFE
FFFE
FFFE
FFFE
FFFE
FFFE
FFFE
ENDCHAR
STARTCHAR char8781
ENCODING 9079
SWIDTH 9000 0
DWIDTH 18 0
BBX 15 14 2 0
BITMAP
FFFE
FFFE
FFFE
FFFE
FFFE
FFFE
FFFE
FFFE
FFFE
FFFE
FFFE
FFFE
FFFE
FFFE
ENDCHAR
STARTCHAR char8782
ENCODING 9080
SWIDTH 9000 0
DWIDTH 18 0
BBX 15 14 2 0
BITMAP
FFFE
FFFE
FFFE
FFFE
FFFE
FFFE
FFFE
FFFE
FFFE
FFFE
FFFE
FFFE
FFFE
FFFE
ENDCHAR
STARTCHAR char8783
ENCODING 9081
SWIDTH 9000 0
DWIDTH 18 0
BBX 15 14 2 0
BITMAP
FFFE
FFFE
FFFE
FFFE
FFFE
FFFE
FFFE
FFFE
FFFE
FFFE
FFFE
FFFE
FFFE
FFFE
ENDCHAR
STARTCHAR char8779
ENCODING 9082
SWIDTH 9000 0
DWIDTH 18 0
BBX 15 14 2 0
BITMAP
FFFE
FFFE
FFFE
FFFE
FFFE
FFFE
FFFE
FFFE
FFFE
FFFE
FFFE
FFFE
FFFE
FFFE
ENDCHAR
STARTCHAR char8780
ENCODING 9083
SWIDTH 9000 0
DWIDTH 18 0
BBX 15 14 2 0
BITMAP
FFFE
FFFE
FFFE
FFFE
FFFE
FFFE
FFFE
FFFE
FFFE
FFFE
FFFE
FFFE
FFFE
FFFE
ENDCHAR
STARTCHAR char8781
ENCODING 9084
SWIDTH 9000 0
DWIDTH 18 0
BBX 15 14 2 0
BITMAP
FFFE
FFFE
FFFE
FFFE
FFFE
FFFE
FFFE
FFFE
FFFE
FFFE
FFFE
FFFE
FFFE
FFFE
ENDCHAR
STARTCHAR char8782
ENCODING 9085
SWIDTH 9000 0
DWIDTH 18 0
BBX 15 14 2 0
BITMAP
FFFE
FFFE
FFFE
FFFE
FFFE
FFFE
FFFE
FFFE
FFFE
FFFE
FFFE
FFFE
FFFE
FFFE
ENDCHAR
STARTCHAR char8783
ENCODING 9086
SWIDTH 9000 0
DWIDTH 18 0
BBX 15 14 2 0
BITMAP
FFFE
FFFE
FFFE
FFFE
FFFE
FFFE
FFFE
FFFE
FFFE
FFFE
FFFE
FFFE
FFFE
FFFE
ENDCHAR
STARTCHAR char128
ENCODING 9249
SWIDTH 7125 0
DWIDTH 15 0
BBX 13 24 1 -7
BITMAP
7FF8
7FF8
0F38
0F38
1998
7198
F198
C098
0098
0008
0008
0008
0008
0008
0008
0008
0008
0008
0008
0018
0038
0068
0078
0008
ENDCHAR
STARTCHAR char129
ENCODING 9250
SWIDTH 7125 0
DWIDTH 15 0
BBX 13 20 1 -3
BITMAP
3FF8
FFF0
C7F8
C638
CC18
CC08
CC08
CFC8
C7F8
C038
C008
8008
8018
8028
8068
8038
8008
8000
8000
8000
ENDCHAR
STARTCHAR char130
ENCODING 9251
SWIDTH 6750 0
DWIDTH 14 0
BBX 12 24 1 -7
BITMAP
FFF0
FFF0
7FB0
63B0
C1B0
81B0
F9B0
FCB0
FE90
0390
0190
0090
0010
0010
0010
0010
0010
0010
0010
0030
0070
0050
00F0
0010
ENDCHAR
STARTCHAR char131
ENCODING 9252
SWIDTH 6750 0
DWIDTH 14 0
BBX 12 20 1 -3
BITMAP
7FC0
7FC0
1C00
0400
0400
0700
1FC0
31F0
E0F0
6070
7030
3030
1820
1E40
0FC0
01C0
0340
0240
03C0
0040
ENDCHAR
STARTCHAR char132
ENCODING 9253
SWIDTH 7500 0
DWIDTH 15 0
BBX 14 26 1 -9
BITMAP
1FC0
3FC0
63E0
C0C0
8040
C1F0
F3F8
74F8
2C3C
0C1C
0E1C
0F9C
079C
0018
0010
0030
0060
0040
00C0
0080
0180
0300
0700
0D00
0D00
0300
ENDCHAR
STARTCHAR char133
ENCODING 9254
SWIDTH 6375 0
DWIDTH 13 0
BBX 12 27 1 -10
BITMAP
FFE0
FFE0
E000
E000
E000
6300
6FE0
7FF0
20F0
2070
2070
3070
1070
0060
00E0
00C0
0100
0100
0200
0600
0C00
1800
3800
3800
6800
3800
0800
ENDCHAR
STARTCHAR char134
ENCODING 9255
SWIDTH 7125 0
DWIDTH 15 0
BBX 13 26 1 -9
BITMAP
7FE0
7FE0
7E00
6000
4000
4000
C000
FF00
FFC0
03C0
01E0
00E0
0030
0030
0030
0030
0010
0010
0008
0008
0008
0018
0038
0068
0078
0018
ENDCHAR
STARTCHAR char135
ENCODING 9256
SWIDTH 7125 0
DWIDTH 15 0
BBX 13 23 1 -2
BITMAP
0008
0078
0070
0040
7FC0
3FC0
0C00
0400
0400
0F00
1FE0
30F0
E070
6030
7030
3830
1C20
1FC0
0F80
0180
0380
0380
0180
ENDCHAR
STARTCHAR char136
ENCODING 9257
SWIDTH 7875 0
DWIDTH 16 0
BBX 15 24 1 -3
BITMAP
000A
001E
001C
0010
7FF0
3FF0
0700
0200
0F80
3FF0
7FF8
7FFC
C20C
820C
820C
820C
C208
6798
3C60
0060
00E0
01A0
01E0
0020
ENDCHAR
STARTCHAR char137
ENCODING 9258
SWIDTH 7125 0
DWIDTH 15 0
BBX 13 25 1 -8
BITMAP
07F8
0FF0
1070
2030
27D0
6FF0
6DF0
E870
E870
ECF0
67B0
7030
7010
1810
0010
0008
0008
0008
0008
0008
0018
0018
0068
0078
0008
ENDCHAR
STARTCHAR char138
ENCODING 9259
SWIDTH 6750 0
DWIDTH 14 0
BBX 12 21 1 -4
BITMAP
FFF0
FFF0
0070
0070
3E70
7FF0
7FB0
00F0
0030
0010
3E10
7F90
FFD0
0050
0030
0030
0030
0070
00D0
00F0
0010
ENDCHAR
STARTCHAR char139
ENCODING 9260
SWIDTH 7500 0
DWIDTH 15 0
BBX 14 21 1 -4
BITMAP
7FE0
3FE0
0F00
0300
0300
0100
0000
1F00
7FC0
FFE0
8070
0030
0018
0008
0004
0004
000C
001C
0034
003C
0004
ENDCHAR
STARTCHAR char140
ENCODING 9261
SWIDTH 7500 0
DWIDTH 15 0
BBX 14 21 1 -4
BITMAP
1F1C
3F1C
630C
C10C
810C
C10C
C10C
E204
6304
6784
0FC4
0024
0014
000C
0004
0004
000C
001C
0034
0034
001C
ENDCHAR
STARTCHAR char162
ENCODING 9262
SWIDTH 7500 0
DWIDTH 15 0
BBX 14 24 2 -7
BITMAP
01FC
07FC
070C
0C0C
0C0C
0C0C
0C0C
0FFC
3DFC
7CEC
FC0C
060C
030C
010C
0004
0004
0004
0004
000C
001C
0024
0034
001C
0004
ENDCHAR
STARTCHAR char142
ENCODING 9263
SWIDTH 7125 0
DWIDTH 15 0
BBX 13 21 1 -5
BITMAP
7FB8
7F38
3E38
6798
4198
40D8
70C8
FC68
FE38
0E38
0718
0198
0008
0008
0008
0008
0038
0068
00E8
0078
0018
ENDCHAR
STARTCHAR char143
ENCODING 9264
SWIDTH 6375 0
DWIDTH 13 0
BBX 12 24 1 -8
BITMAP
FFC0
FFC0
7800
4080
C3E0
87F0
FC70
FC30
1E30
0E30
0660
0260
0040
00C0
0100
0100
0200
0600
0E00
1E00
3600
7600
1E00
0600
ENDCHAR
STARTCHAR char144
ENCODING 9280
SWIDTH 7875 0
DWIDTH 16 0
BBX 15 20 1 -3
BITMAP
7FFC
7FFC
071C
0F1C
198C
798C
F08C
C0CC
000C
000C
000C
000C
000C
780C
47FE
21F6
180C
0FFC
07F8
01E0
ENDCHAR
STARTCHAR char145
ENCODING 9281
SWIDTH 7500 0
DWIDTH 15 0
BBX 14 20 1 -3
BITMAP
3FF8
FFF8
C7F8
C618
CC08
CC08
CC08
CFE8
C7F8
C038
C008
8008
BC08
B398
98F4
8C0C
8718
83F8
81F0
8000
ENDCHAR
STARTCHAR char146
ENCODING 9282
SWIDTH 7500 0
DWIDTH 15 0
BBX 14 21 1 -4
BITMAP
FFF8
FFF8
7F98
6198
C1D8
80D8
F8D8
FED8
FFD8
83D8
01D8
0098
0018
0018
F018
9FF4
43EC
3018
1FF8
0FF0
03E0
ENDCHAR
STARTCHAR char147
ENCODING 9283
SWIDTH 8250 0
DWIDTH 17 0
BBX 15 21 1 -4
BITMAP
FF38
7F38
7018
6018
4018
C018
8008
BE08
FFC8
7FE8
0078
0018
0008
0008
000A
7F1A
23F4
100C
1E18
0FF0
03E0
ENDCHAR
STARTCHAR char148
ENCODING 9284
SWIDTH 7500 0
DWIDTH 15 0
BBX 15 21 1 -4
BITMAP
FF38
7F38
7038
60F8
4398
C318
C208
BE08
FFC8
7FE8
0078
0018
0008
0008
000A
7F1A
23F4
100C
1E18
0FF0
03E0
ENDCHAR
STARTCHAR char149
ENCODING 9285
SWIDTH 8250 0
DWIDTH 17 0
BBX 15 21 1 -4
BITMAP
FFF8
7FF8
7038
6018
4018
C018
C008
BE08
FFC8
7FE8
0078
0018
0008
0008
000A
7F1A
23F4
100C
1E18
0FF0
03E0
ENDCHAR
STARTCHAR char150
ENCODING 9286
SWIDTH 8250 0
DWIDTH 17 0
BBX 15 21 1 -4
BITMAP
FFB8
FF38
7C18
0C18
3C18
7F18
7F08
C388
C3C8
C6E8
6C38
3818
0008
0008
000A
7F1A
23F4
100C
1E18
0FF0
03E0
ENDCHAR
STARTCHAR char151
ENCODING 9287
SWIDTH 8250 0
DWIDTH 17 0
BBX 15 25 1 -8
BITMAP
FF38
7F38
7038
60F8
4398
C308
C208
FF08
FFC8
00E8
0038
0018
0008
000A
7C0A
6396
30EC
1808
1E38
07E8
03D8
0038
0068
0078
0008
ENDCHAR
STARTCHAR char152
ENCODING 9296
SWIDTH 7125 0
DWIDTH 15 0
BBX 13 18 1 -1
BITMAP
7FF8
7FF8
0F38
0338
1998
7998
F198
C098
0098
0008
0008
0008
0008
0008
7C08
7FC8
7FF8
0038
ENDCHAR
STARTCHAR char153
ENCODING 9297
SWIDTH 7125 0
DWIDTH 15 0
BBX 13 21 1 -4
BITMAP
3FF8
FFF0
C7F8
C638
CC18
CC08
CC08
CC08
C7E8
C3F8
C038
C018
BF08
BFC8
BFE8
8038
8008
8000
8000
8000
8000
ENDCHAR
STARTCHAR char154
ENCODING 9298
SWIDTH 6750 0
DWIDTH 14 0
BBX 12 18 1 -2
BITMAP
FFF0
FFF0
7FB0
C3B0
C1B0
81B0
FDB0
FE90
FF90
0190
0190
0010
0010
7810
FF10
FFD0
01F0
0030
ENDCHAR
STARTCHAR char155
ENCODING 9299
SWIDTH 7125 0
DWIDTH 15 0
BBX 13 24 2 -7
BITMAP
7FF0
7FF0
7000
7000
7000
3080
37F0
1FF8
1878
0838
0838
0C38
0038
0030
0070
0060
00C0
0080
0100
0100
F200
FE00
FF80
00C0
ENDCHAR
STARTCHAR char156
ENCODING 9300
SWIDTH 6000 0
DWIDTH 12 0
BBX 11 20 1 -3
BITMAP
1FE0
3FE0
4060
C060
C060
FFE0
7E20
3820
6020
4020
8020
FE20
FFA0
03E0
00E0
E020
FE20
FF20
03E0
0020
ENDCHAR
STARTCHAR char157
ENCODING 9301
SWIDTH 6750 0
DWIDTH 14 0
BBX 12 22 1 -5
BITMAP
FFE0
7FE0
7C00
6000
4000
C000
C000
FF80
FFC0
03C0
01E0
00E0
0070
0070
0030
0030
0030
7810
7F10
7FD0
00F0
0010
ENDCHAR
STARTCHAR char158
ENCODING 9302
SWIDTH 7125 0
DWIDTH 15 0
BBX 13 20 1 -3
BITMAP
7FB8
7F38
3018
6018
6018
4008
4008
D808
FF08
FF88
7FC8
00E8
0038
0018
0008
7C08
7F88
7FE8
00F8
0008
ENDCHAR
STARTCHAR char159
ENCODING 9303
SWIDTH 7125 0
DWIDTH 15 0
BBX 13 20 1 -3
BITMAP
7FB8
7F18
3018
6078
60F8
4188
4108
DA08
FF08
FF88
7FC8
00E8
0038
0018
0008
7C08
7F88
7FE8
00F8
0008
ENDCHAR
STARTCHAR char160
ENCODING 9304
SWIDTH 7125 0
DWIDTH 15 0
BBX 13 20 1 -3
BITMAP
7FF8
7FF8
3018
6018
6018
4008
C008
9808
FF08
FF88
7FC8
00E8
0038
0018
0008
7C08
7F88
7FE8
00F8
0008
ENDCHAR
STARTCHAR char161
ENCODING 9305
SWIDTH 7125 0
DWIDTH 15 0
BBX 13 20 1 -3
BITMAP
7FB8
7F38
7C18
0C18
0418
3C08
7F08
7F88
C7C8
81C8
43E8
4668
3C38
0018
0008
7C08
7F88
7FE8
00F8
0008
ENDCHAR
STARTCHAR char162
ENCODING 9306
SWIDTH 7500 0
DWIDTH 15 0
BBX 14 22 1 -5
BITMAP
01FC
07FC
060C
0C0C
0C0C
0C0C
0E0C
0FFC
7DFC
FC0C
FC0C
060C
010C
010C
0004
0004
1E04
1F84
1FE4
00FC
001C
0004
ENDCHAR
STARTCHAR char163
ENCODING 9307
SWIDTH 7125 0
DWIDTH 15 0
BBX 13 18 1 -2
BITMAP
7FB8
7F38
3E18
6798
4198
40D8
70C8
FC68
FE38
0E38
0718
0198
0008
7008
7F08
7FC8
00F8
0018
ENDCHAR
STARTCHAR char164
ENCODING 9308
SWIDTH 7125 0
DWIDTH 15 0
BBX 13 21 1 -4
BITMAP
3FE0
7FE0
1E00
2000
21F0
21F8
3E78
7E18
0F18
0718
0338
01B0
0020
0040
0080
0080
0100
7A00
FE00
FF00
0080
ENDCHAR
STARTCHAR char224
ENCODING 9309
SWIDTH 7500 0
DWIDTH 15 0
BBX 14 19 1 -2
BITMAP
7FF8
7FF0
7800
6000
6000
4FE0
7FE0
7FE0
4000
C000
9F80
FFC0
FFE0
0030
3C18
7F88
7FEC
0074
000C
ENDCHAR
STARTCHAR char225
ENCODING 9310
SWIDTH 8250 0
DWIDTH 17 0
BBX 15 23 1 -2
BITMAP
0002
001E
001C
0010
7FF0
7FF0
7800
6000
6000
CFE0
FFE0
FFE0
C000
C000
9F80
FFC0
FFE0
0030
3810
7F88
7FEC
00FC
000C
ENDCHAR
STARTCHAR char165
ENCODING 9311
SWIDTH 6750 0
DWIDTH 14 0
BBX 12 23 1 -6
BITMAP
FFF0
FFF0
7FB0
63B0
C1B0
81B0
F9B0
FEB0
FF90
0390
0190
0090
0010
0010
FE10
FF90
01F0
0030
0030
0030
0050
00F0
0030
ENDCHAR
STARTCHAR char166
ENCODING 9312
SWIDTH 7125 0
DWIDTH 15 0
BBX 13 24 1 -7
BITMAP
7FF8
7FF8
0F38
1B18
7998
F198
8098
0058
0048
0008
0008
1F38
3F38
6738
4318
C118
C118
E108
6608
6788
6FC8
00E8
0018
0008
ENDCHAR
STARTCHAR char167
ENCODING 9313
SWIDTH 7125 0
DWIDTH 15 0
BBX 13 24 1 -7
BITMAP
7FF8
7FF8
3F98
61D8
40D8
5ED8
7F58
7FC8
00C8
0048
0008
1F38
3F38
6738
4318
C118
C118
E108
6608
6788
6FC8
00E8
0018
0008
ENDCHAR
STARTCHAR char168
ENCODING 9314
SWIDTH 7125 0
DWIDTH 15 0
BBX 13 24 1 -7
BITMAP
7FF8
7FF8
7038
6018
4018
4008
5C08
7F88
7FE8
3FF8
0018
0F18
1F38
3F38
4718
4318
C118
C118
E308
6608
6788
6FE8
00F8
0008
ENDCHAR
STARTCHAR char169
ENCODING 9315
SWIDTH 7125 0
DWIDTH 15 0
BBX 13 24 1 -7
BITMAP
7FF8
7FF8
0038
0038
3FD8
7FF8
0018
0E08
3F88
7FE8
FFF8
0F38
1F38
3F38
4718
4318
C118
C118
E308
6608
6788
6FE8
00F8
0008
ENDCHAR
STARTCHAR char170
ENCODING 9316
SWIDTH 7500 0
DWIDTH 15 0
BBX 14 24 1 -7
BITMAP
3FF0
3FF0
0700
0100
0300
0F00
3FC0
7FE0
4070
0038
000C
1F18
3F18
6718
4318
C118
C118
E108
6308
6788
6FC8
00E8
0018
0008
ENDCHAR
STARTCHAR char171
ENCODING 9317
SWIDTH 7125 0
DWIDTH 15 0
BBX 13 24 1 -7
BITMAP
3FB8
7F38
3F98
2198
60D8
3868
7C28
7E38
0718
0188
0008
1F38
3F38
6738
4318
C118
C118
E108
6608
6788
6FC8
00E8
0018
0008
ENDCHAR
STARTCHAR char172
ENCODING 9505
SWIDTH 7125 0
DWIDTH 15 0
BBX 13 21 1 -4
BITMAP
3FF0
7FF0
0700
0300
7FF8
7FF8
0F38
0F18
1998
7998
F198
C098
80D8
0008
0008
0008
0008
0008
0008
0008
0008
ENDCHAR
STARTCHAR char173
ENCODING 9506
SWIDTH 6750 0
DWIDTH 14 0
BBX 12 22 1 -5
BITMAP
7FE0
7FE0
0E00
0200
FFF0
FFF0
73B0
63B0
C1B0
81B0
FDB0
FEB0
CF90
0190
0090
0010
0010
0010
0010
0010
0010
0010
ENDCHAR
STARTCHAR char174
ENCODING 9507
SWIDTH 6750 0
DWIDTH 14 0
BBX 12 18 1 -1
BITMAP
7FE0
7FE0
0E00
0200
FFE0
FFE0
FFC0
E000
C000
C000
8000
FF00
FF80
FFC0
00C0
0060
0030
0010
ENDCHAR
STARTCHAR char175
ENCODING 9508
SWIDTH 7125 0
DWIDTH 15 0
BBX 13 19 1 -2
BITMAP
3FF0
3FE0
0700
0300
7FF0
7FF0
7800
6000
6FE0
5FE0
7FC0
4000
C000
DF80
FFC0
FFE0
0030
0010
0008
ENDCHAR
STARTCHAR char176
ENCODING 9509
SWIDTH 7875 0
DWIDTH 16 0
BBX 15 26 1 -9
BITMAP
3FF0
3FF0
0F00
0100
0300
0200
1F80
7FE0
79F0
1F98
3FCC
7FC6
40C0
81C0
E3F0
67F0
6CF8
0838
0C1C
0F1C
07B8
0338
0060
00C0
0180
0300
ENDCHAR
STARTCHAR char177
ENCODING 9510
SWIDTH 6000 0
DWIDTH 12 0
BBX 11 25 1 -8
BITMAP
FFC0
FFC0
0E00
0600
FFC0
FFC0
E000
E000
E000
EFC0
7FE0
61E0
20E0
20E0
00E0
00C0
00C0
0180
0100
0200
0600
0600
0C00
0800
1000
ENDCHAR
STARTCHAR char178
ENCODING 9511
SWIDTH 7125 0
DWIDTH 15 0
BBX 13 25 1 -8
BITMAP
7FE0
7FE0
0E00
0200
FFE0
FFC0
7800
6000
4000
8000
FF00
FF80
0FC0
01E0
0060
0060
0020
0030
0030
0010
0010
0018
0008
0008
0008
ENDCHAR
STARTCHAR char179
ENCODING 9512
SWIDTH 7125 0
DWIDTH 15 0
BBX 13 25 1 -8
BITMAP
7FE0
3FC0
0E00
0200
7FE0
7FC0
0E00
0400
1C00
7F00
7F80
EFC0
81C0
83E0
7E60
0020
0020
0030
0030
0010
0010
0010
0018
0008
0008
ENDCHAR
STARTCHAR char180
ENCODING 9513
SWIDTH 7125 0
DWIDTH 15 0
BBX 13 18 1 -2
BITMAP
7FF0
3FF0
0780
7FF8
7FF8
FFF8
6018
6018
4018
C018
8018
FE18
FF88
FFC8
0068
0018
0018
0008
ENDCHAR
STARTCHAR char181
ENCODING 9514
SWIDTH 7125 0
DWIDTH 15 0
BBX 13 18 1 -2
BITMAP
7F80
7F00
1C00
7F18
7F38
FF38
1C18
0C18
0C18
7E18
FF18
CF98
83C8
C6E8
CC68
3018
0018
0008
ENDCHAR
STARTCHAR char182
ENCODING 9515
SWIDTH 7125 0
DWIDTH 15 0
BBX 13 18 1 -2
BITMAP
7FF8
3FB8
0E78
3FC0
7FE0
7FC0
0E00
0600
0200
0780
0BE0
30F0
E078
3038
3038
1830
1C20
0FC0
ENDCHAR
STARTCHAR char183
ENCODING 9516
SWIDTH 8250 0
DWIDTH 17 0
BBX 15 19 1 -2
BITMAP
3FF2
7FFE
071C
0310
7FF0
FFF0
7800
6000
6FE0
DFE0
FFC0
C000
C000
9F80
FFC0
FFE0
0030
0010
0008
ENDCHAR
STARTCHAR char184
ENCODING 9517
SWIDTH 6750 0
DWIDTH 14 0
BBX 12 27 1 -10
BITMAP
7FE0
7FE0
0E00
0200
FFF0
FFF0
73B0
63B0
C1B0
81B0
B1B0
FFB0
FF90
0390
0190
0090
0010
0010
0010
0010
0010
0010
0030
0070
0050
00F0
0010
ENDCHAR
STARTCHAR char185
ENCODING 9518
SWIDTH 7125 0
DWIDTH 15 0
BBX 13 23 1 -6
BITMAP
7FC0
7FB8
1E78
0640
7FE0
7FC0
0E00
0400
0400
0700
0FC0
38F0
E070
6038
3038
1830
1C30
1FE0
0FE0
00E0
01A0
00E0
0020
ENDCHAR
STARTCHAR char186
ENCODING 9520
SWIDTH 7875 0
DWIDTH 16 0
BBX 15 22 1 -5
BITMAP
3FF0
7FE0
0700
0300
7FF8
FFF8
0F38
1B38
1B98
F998
F198
C098
0018
0008
0008
7008
4FF2
23E4
1808
0FF8
07F0
01C0
ENDCHAR
STARTCHAR char187
ENCODING 9521
SWIDTH 7875 0
DWIDTH 16 0
BBX 15 23 1 -6
BITMAP
7FE0
7FE0
0E00
0300
FFF8
FFF8
7398
6198
41D8
80D8
FCD8
FED8
FFD8
01C8
00C8
0008
E008
9FF2
43E4
3008
1FF8
0FF0
01C0
ENDCHAR
STARTCHAR char188
ENCODING 9522
SWIDTH 7875 0
DWIDTH 16 0
BBX 15 22 1 -5
BITMAP
7F80
7F80
1C00
0C00
7FBC
FF3C
1C1C
0C0C
7C0C
FF0C
FF8C
83CC
866C
7C3C
381C
000C
7C0C
7FFE
200C
1E3C
0FF8
03E0
ENDCHAR
STARTCHAR char189
ENCODING 9536
SWIDTH 7125 0
DWIDTH 15 0
BBX 13 24 1 -7
BITMAP
1F38
3F38
6318
C118
C118
C108
E208
6308
67E8
2FF8
0008
7FF8
7FF8
0F38
0F18
7998
7198
E098
0098
0008
0008
0008
0008
0008
ENDCHAR
STARTCHAR char190
ENCODING 9537
SWIDTH 7125 0
DWIDTH 15 0
BBX 13 24 1 -8
BITMAP
1F38
3F38
6318
C118
C118
C108
6208
6708
6FE8
0DF8
3FF8
7FF8
7FF8
3998
6198
48D8
7ED8
7F58
03C8
00C8
0008
0008
0008
0008
ENDCHAR
STARTCHAR char191
ENCODING 9538
SWIDTH 7500 0
DWIDTH 15 0
BBX 14 24 1 -7
BITMAP
1F18
3F18
6318
C118
C118
C108
E208
6308
67C8
2FE8
0018
3FF8
3FF8
7FF8
3C00
3800
3000
2000
7F80
7FC0
7FE0
00F0
0038
0004
ENDCHAR
STARTCHAR char192
ENCODING 9539
SWIDTH 7500 0
DWIDTH 15 0
BBX 14 24 1 -7
BITMAP
1F18
3F18
6318
C118
C108
C108
E208
6308
67E8
2FF8
0008
1FF8
1FF8
0780
0100
0180
03E0
06F8
3C3C
381C
0C0C
0E0C
0F18
07E0
ENDCHAR
STARTCHAR char193
ENCODING 9540
SWIDTH 7875 0
DWIDTH 16 0
BBX 15 24 1 -8
BITMAP
1F1C
3F1C
631C
C10C
C10C
C10C
620C
638C
67EC
05FC
3FFC
3FFC
3FFC
3C00
3000
2FF8
3FF0
7FE0
6000
4380
5FE0
7FF8
7FFC
0002
ENDCHAR
STARTCHAR char194
ENCODING 9541
SWIDTH 7125 0
DWIDTH 15 0
BBX 13 27 1 -11
BITMAP
1F38
3F38
6318
C118
C118
C108
6308
6708
6FE8
0DF8
1FF8
3FF0
3FF0
3800
3800
19F0
1FF8
0FF8
0C38
0038
0038
0030
0060
00C0
0080
0100
0200
ENDCHAR
STARTCHAR char195
ENCODING 9542
SWIDTH 7875 0
DWIDTH 16 0
BBX 15 27 1 -11
BITMAP
1F1C
3F1C
631C
C10C
C10C
C10C
620C
638C
67EC
05FC
1FF8
3FF8
3FF0
1E00
1800
3000
3FC0
3FE0
0FF0
0078
0018
000C
000C
000C
0004
0006
0002
ENDCHAR
STARTCHAR char196
ENCODING 9543
SWIDTH 7125 0
DWIDTH 15 0
BBX 13 23 1 -6
BITMAP
1F38
3F38
6318
C118
C118
C108
E208
6308
67C8
0FE8
0018
3F18
7FB8
3818
3018
6018
6018
5C08
7F08
7F88
7FE8
0038
0008
ENDCHAR
STARTCHAR char197
ENCODING 9544
SWIDTH 7125 0
DWIDTH 15 0
BBX 13 24 1 -7
BITMAP
1F38
3F38
6318
C118
C118
C108
E308
6308
67C8
2FE8
0038
3FF8
7FF8
3838
3018
6018
6018
4008
7F08
7F88
7FE8
0038
0018
0008
ENDCHAR
STARTCHAR char198
ENCODING 9545
SWIDTH 7500 0
DWIDTH 15 0
BBX 14 26 1 -9
BITMAP
1F18
3F18
6318
C118
C108
C108
E208
67C8
67F8
0038
1FF8
1FF0
1E00
1800
1078
30FC
3F3C
1F1C
039C
0198
00D8
0030
0020
0040
0080
0100
ENDCHAR
STARTCHAR char199
ENCODING 9552
SWIDTH 7125 0
DWIDTH 15 0
BBX 13 24 1 -7
BITMAP
3FB8
7F38
3F98
21D8
78F8
7C68
3E38
0718
0198
0008
7FF8
7FF8
7FF8
0F38
3998
7998
F098
8098
0098
0008
0008
0008
0008
0008
ENDCHAR
STARTCHAR char200
ENCODING 9553
SWIDTH 6750 0
DWIDTH 14 0
BBX 12 24 1 -7
BITMAP
7F70
7F70
7F30
63B0
F1F0
F8D0
7C70
0E30
0330
0010
FFF0
FFF0
FFF0
63B0
C1B0
81B0
F9B0
FEB0
FF90
0390
0090
0010
0010
0010
ENDCHAR
STARTCHAR char201
ENCODING 9554
SWIDTH 7500 0
DWIDTH 15 0
BBX 14 21 1 -5
BITMAP
7F38
7F78
7F38
6398
79D8
FC58
3E38
0718
0018
3FF8
7FF8
7FF0
3800
7000
6000
7F80
7FC0
7FE0
00F0
0018
000C
ENDCHAR
STARTCHAR char202
ENCODING 9555
SWIDTH 7125 0
DWIDTH 15 0
BBX 13 26 1 -9
BITMAP
7F30
7F30
7F30
6190
70D0
FC70
1E30
0710
0F80
1F80
3FC0
41C0
41C0
41C0
77E0
7DF0
2C38
0C38
0F38
0FB8
0730
0060
0040
0080
0100
0200
ENDCHAR
STARTCHAR char203
ENCODING 9556
SWIDTH 7125 0
DWIDTH 15 0
BBX 13 24 1 -7
BITMAP
7F30
7F30
7F30
63B0
70D0
F850
7C30
0E10
0310
7FF0
7FF0
7FF0
7000
7000
33E0
37F0
1FF0
1838
0838
0030
0030
0060
00C0
0180
ENDCHAR
STARTCHAR char204
ENCODING 9557
SWIDTH 7500 0
DWIDTH 15 0
BBX 14 27 1 -10
BITMAP
7F38
7F38
7F38
6398
70D8
FC58
7C38
0618
0398
7FF0
7FE0
7FE0
3800
6000
6000
7F80
7FC0
7FE0
01F0
0030
0030
0018
0018
0008
0008
000C
0004
ENDCHAR
STARTCHAR char205
ENCODING 9558
SWIDTH 7125 0
DWIDTH 15 0
BBX 13 27 1 -10
BITMAP
7F30
7F30
7F30
63B0
70D0
F850
7C30
0E10
0310
3FF0
7FE0
7FC0
0600
0200
3F00
7F80
43C0
41C0
43E0
4660
3C30
0030
0030
0010
0010
0008
0008
ENDCHAR
STARTCHAR char206
ENCODING 9559
SWIDTH 7125 0
DWIDTH 15 0
BBX 13 21 1 -5
BITMAP
3FB8
3F38
3FB8
61D8
78F8
7C68
1E18
0718
0108
7F18
7FB8
7F38
3018
6018
4008
C008
FE08
FF88
7FC8
00F8
0018
ENDCHAR
STARTCHAR char207
ENCODING 9560
SWIDTH 7125 0
DWIDTH 15 0
BBX 13 21 1 -5
BITMAP
3FB8
3F38
3FB8
61D8
78F8
7C68
1E18
0718
0108
7FF8
7FF8
7FF8
3018
6018
4008
C008
BE08
FF88
7FC8
00F8
0018
ENDCHAR
STARTCHAR char208
ENCODING 9561
SWIDTH 7125 0
DWIDTH 15 0
BBX 13 21 1 -5
BITMAP
3FB8
3F38
3F98
61D8
78F8
7C68
1E18
0718
7F98
7FB8
7F18
1C18
0418
3C08
7F08
FF88
C3C8
C2E8
4638
3C18
1008
ENDCHAR
STARTCHAR char209
ENCODING 9562
SWIDTH 8625 0
DWIDTH 18 0
BBX 16 21 1 -5
BITMAP
7E60
7CE0
7E60
4760
F3A0
F9A0
7CE7
0E7E
001C
0FF8
0FF0
0FF0
0180
01C0
01F0
0E7C
1C1E
1C06
0E06
070C
03F8
ENDCHAR
STARTCHAR char210
ENCODING 9568
SWIDTH 7875 0
DWIDTH 16 0
BBX 15 26 1 -9
BITMAP
3F9C
3F9C
3F9C
20CC
786C
7E2C
0F1C
038C
008C
000C
7FFC
7FFC
1F1C
3B8C
F18C
F0CC
00CC
000C
000C
000C
7F1E
23FE
180C
0FFC
07F8
01C0
ENDCHAR
STARTCHAR char211
ENCODING 9569
SWIDTH 7875 0
DWIDTH 16 0
BBX 15 25 1 -8
BITMAP
7F38
7F38
7F18
6198
78D8
FC68
1E38
0718
0008
FFF8
FFF8
FFF8
E198
C0D8
FCD8
FED8
FFC8
01C8
0008
F808
FF1E
61EC
3E38
1FF0
07E0
ENDCHAR
STARTCHAR char212
ENCODING 9570
SWIDTH 7875 0
DWIDTH 16 0
BBX 15 26 1 -9
BITMAP
7F9C
3F3C
3F9C
61CC
78EC
7C2C
0F1C
030C
008C
7F9C
7F9C
7F1C
701C
600C
400C
BE0C
FF8C
7FEC
007C
000C
7C0C
7F8A
30F6
1F1C
0FF8
03F0
ENDCHAR
STARTCHAR char213
ENCODING 9571
SWIDTH 8250 0
DWIDTH 17 0
BBX 15 26 1 -9
BITMAP
7F38
7F78
3F38
4398
F9D8
7C78
1F28
0388
0088
7FF8
FFF8
7FF8
6018
4018
C018
BE08
FF88
7FC8
38E8
0018
7C0A
7F1E
30F4
1E38
0FF0
03E0
ENDCHAR
STARTCHAR char214
ENCODING 9572
SWIDTH 7875 0
DWIDTH 16 0
BBX 15 26 1 -9
BITMAP
7F9C
3F3C
3F9C
61CC
786C
7C2C
0F1C
030C
008C
7F9C
7F9C
7F3C
0E0C
1E0C
7F8C
FFCC
C2EC
C27C
7C1C
000C
780C
7F8A
30F6
1F1C
0FF8
03F0
ENDCHAR
STARTCHAR char215
ENCODING 9584
SWIDTH 7125 0
DWIDTH 15 0
BBX 13 24 1 -8
BITMAP
3FB8
3F38
3F98
21D8
78F8
7C68
3E18
0718
0188
3FF8
7FF8
7FF8
0F38
0B18
7998
F198
F098
0098
0008
3E08
7F88
7FE8
0078
0008
ENDCHAR
STARTCHAR char216
ENCODING 9585
SWIDTH 6750 0
DWIDTH 14 0
BBX 12 25 1 -8
BITMAP
7F70
7F70
7F30
43B0
F1F0
F850
7C30
0E30
0310
0010
FFF0
FFF0
63B0
C1B0
81B0
81B0
FFB0
FF90
0390
0190
7C90
FF10
FFD0
00F0
0010
ENDCHAR
STARTCHAR char217
ENCODING 9586
SWIDTH 6750 0
DWIDTH 14 0
BBX 12 26 1 -9
BITMAP
7F70
7F70
7F30
63B0
F1F0
F8D0
7C70
0E30
0310
3FE0
7FE0
3FC0
0600
0000
3F00
7F80
C3C0
C3C0
C2E0
6460
3870
0030
7E30
7FB0
07F0
0030
ENDCHAR
STARTCHAR char218
ENCODING 9587
SWIDTH 7125 0
DWIDTH 15 0
BBX 13 25 1 -8
BITMAP
3FB8
3F38
3FB8
61D8
78F8
7C68
1E38
0718
0108
0008
7FB8
7F38
6018
6018
4008
4008
FF88
FFC8
0078
0018
7808
7F08
7FC8
00E8
0018
ENDCHAR
STARTCHAR char219
ENCODING 9588
SWIDTH 7125 0
DWIDTH 15 0
BBX 13 25 1 -8
BITMAP
3FB8
3F38
3FB8
61D8
78F8
7C68
1E38
0718
0108
0000
7FF8
7FF8
6018
6018
4008
8008
FF88
FFC8
0078
0018
7808
7F08
7FC8
00E8
0018
ENDCHAR
STARTCHAR char220
ENCODING 9589
SWIDTH 7125 0
DWIDTH 15 0
BBX 13 25 1 -8
BITMAP
3FB8
3F38
3FB8
61D8
78F8
7C68
1E38
0718
0108
0008
7FB8
7FB8
1C18
1C18
7F08
FF88
C7C8
C2E8
E438
7818
7808
7F08
7FC8
00E8
0018
ENDCHAR
ENDFONT
